Reglo-Bold.ufo
<glyph name="exclam" format="1">
  <advance width="306"/>
  <unicode hex="0021"/>
  <outline>
    <contour>
      <point x="218" y="231" type="line"/>
      <point x="218" y="769" type="line"/>
      <point x="88" y="769" type="line"/>
      <point x="88" y="231" type="line"/>
    </contour>
    <contour>
      <point x="60" y="83" type="curve" smooth="yes"/>
      <point x="60" y="42"/>
      <point x="102" y="0"/>
      <point x="153" y="0" type="curve" smooth="yes"/>
      <point x="204" y="0"/>
      <point x="246" y="42"/>
      <point x="246" y="93" type="curve" smooth="yes"/>
      <point x="246" y="144"/>
      <point x="204" y="185"/>
      <point x="153" y="185" type="curve" smooth="yes"/>
      <point x="102" y="185"/>
      <point x="60" y="144"/>
    </contour>
  </outline>
</glyph>
<glyph name="quotedbl" format="1">
  <advance width="453"/>
  <unicode hex="0022"/>
  <outline>
    <contour>
      <point x="60" y="483" type="line"/>
      <point x="200" y="483" type="line"/>
      <point x="200" y="741" type="line"/>
      <point x="61" y="741" type="line"/>
    </contour>
    <contour>
      <point x="253" y="483" type="line"/>
      <point x="393" y="483" type="line"/>
      <point x="393" y="741" type="line"/>
      <point x="254" y="741" type="line"/>
    </contour>
  </outline>
</glyph>
<glyph name="numbersign" format="1">
  <advance width="604"/>
  <unicode hex="0023"/>
  <outline>
    <contour>
      <point x="219" y="0" type="line"/>
      <point x="317" y="741" type="line"/>
      <point x="187" y="741" type="line"/>
      <point x="89" y="0" type="line"/>
    </contour>
    <contour>
      <point x="417" y="0" type="line"/>
      <point x="515" y="741" type="line"/>
      <point x="385" y="741" type="line"/>
      <point x="287" y="0" type="line"/>
    </contour>
    <contour>
      <point x="80" y="219" type="line"/>
      <point x="524" y="219" type="line"/>
      <point x="524" y="337" type="line"/>
      <point x="80" y="337" type="line"/>
    </contour>
    <contour>
      <point x="80" y="404" type="line"/>
      <point x="524" y="404" type="line"/>
      <point x="524" y="522" type="line"/>
      <point x="80" y="522" type="line"/>
    </contour>
  </outline>
</glyph>
<glyph name="dollar" format="1">
  <advance width="524"/>
  <unicode hex="0024"/>
  <outline>
    <contour>
      <point x="208" y="53" type="line"/>
      <point x="310" y="53" type="line"/>
      <point x="310" y="-79" type="line"/>
      <point x="208" y="-79" type="line"/>
    </contour>
    <contour>
      <point x="208" y="822" type="line"/>
      <point x="310" y="822" type="line"/>
      <point x="310" y="690" type="line"/>
      <point x="208" y="690" type="line"/>
    </contour>
    <contour>
      <point x="347" y="203" type="curve" smooth="yes"/>
      <point x="347" y="268"/>
      <point x="238" y="292"/>
      <point x="155" y="340" type="curve" smooth="yes"/>
      <point x="96" y="373"/>
      <point x="50" y="437"/>
      <point x="50" y="527" type="curve" smooth="yes"/>
      <point x="50" y="650"/>
      <point x="140" y="741"/>
      <point x="261" y="741" type="curve" smooth="yes"/>
      <point x="384" y="741"/>
      <point x="474" y="651"/>
      <point x="474" y="528" type="curve"/>
      <point x="365" y="528" type="line"/>
      <point x="362" y="579"/>
      <point x="312" y="621"/>
      <point x="261" y="621" type="curve" smooth="yes"/>
      <point x="210" y="621"/>
      <point x="176" y="586"/>
      <point x="176" y="536" type="curve" smooth="yes"/>
      <point x="176" y="480"/>
      <point x="269" y="451"/>
      <point x="346" y="410" type="curve" smooth="yes"/>
      <point x="413" y="373"/>
      <point x="474" y="313"/>
      <point x="474" y="212" type="curve" smooth="yes"/>
      <point x="474" y="91"/>
      <point x="384" y="0"/>
      <point x="261" y="0" type="curve" smooth="yes"/>
      <point x="140" y="0"/>
      <point x="40" y="90"/>
      <point x="40" y="212" type="curve"/>
      <point x="149" y="212" type="line"/>
      <point x="151" y="162"/>
      <point x="211" y="120"/>
      <point x="261" y="120" type="curve" smooth="yes"/>
      <point x="311" y="120"/>
      <point x="347" y="160"/>
    </contour>
  </outline>
</glyph>
<glyph name="percent" format="1">
  <advance width="602"/>
  <unicode hex="0025"/>
  <outline>
    <contour>
      <point x="306" y="185" type="curve" smooth="yes"/>
      <point x="306" y="245"/>
      <point x="354" y="289"/>
      <point x="414" y="289" type="curve" smooth="yes"/>
      <point x="474" y="289"/>
      <point x="522" y="245"/>
      <point x="522" y="185" type="curve" smooth="yes"/>
      <point x="522" y="125"/>
      <point x="474" y="77"/>
      <point x="414" y="77" type="curve" smooth="yes"/>
      <point x="354" y="77"/>
      <point x="306" y="125"/>
    </contour>
    <contour>
      <point x="402" y="289" type="move" smooth="yes"/>
    </contour>
    <contour>
      <point x="4" y="588" type="curve" smooth="yes"/>
      <point x="4" y="648"/>
      <point x="52" y="692"/>
      <point x="112" y="692" type="curve" smooth="yes"/>
      <point x="172" y="692"/>
      <point x="220" y="648"/>
      <point x="220" y="588" type="curve" smooth="yes"/>
      <point x="220" y="528"/>
      <point x="172" y="480"/>
      <point x="112" y="480" type="curve" smooth="yes"/>
      <point x="52" y="480"/>
      <point x="4" y="528"/>
    </contour>
    <contour>
      <point x="179" y="0" type="line"/>
      <point x="475" y="741" type="line"/>
      <point x="346" y="741" type="line"/>
      <point x="50" y="0" type="line"/>
    </contour>
  </outline>
</glyph>
<glyph name="ampersand" format="1">
  <advance width="644"/>
  <unicode hex="0026"/>
  <outline>
    <contour>
      <point x="323" y="308" type="line"/>
      <point x="267" y="308" type="line" smooth="yes"/>
      <point x="226" y="308"/>
      <point x="180" y="272"/>
      <point x="180" y="223" type="curve" smooth="yes"/>
      <point x="180" y="170"/>
      <point x="218" y="131"/>
      <point x="273" y="131" type="curve" smooth="yes"/>
      <point x="325" y="131"/>
      <point x="366" y="177"/>
      <point x="366" y="223" type="curve"/>
      <point x="497" y="223" type="line"/>
      <point x="497" y="100"/>
      <point x="397" y="0"/>
      <point x="273" y="0" type="curve" smooth="yes"/>
      <point x="150" y="0"/>
      <point x="50" y="100"/>
      <point x="50" y="223" type="curve" smooth="yes"/>
      <point x="50" y="281"/>
      <point x="71" y="334"/>
      <point x="107" y="372" type="curve"/>
      <point x="71" y="412"/>
      <point x="50" y="465"/>
      <point x="50" y="522" type="curve" smooth="yes"/>
      <point x="50" y="646"/>
      <point x="150" y="746"/>
      <point x="273" y="746" type="curve" smooth="yes"/>
      <point x="397" y="746"/>
      <point x="497" y="646"/>
      <point x="497" y="522" type="curve"/>
      <point x="357" y="522" type="line"/>
      <point x="357" y="568"/>
      <point x="323" y="615"/>
      <point x="273" y="615" type="curve" smooth="yes"/>
      <point x="219" y="615"/>
      <point x="180" y="576"/>
      <point x="180" y="522" type="curve" smooth="yes"/>
      <point x="180" y="474"/>
      <point x="225" y="439"/>
      <point x="266" y="438" type="curve"/>
      <point x="323" y="438" type="line"/>
    </contour>
    <contour>
      <point x="323" y="438" type="line"/>
      <point x="594" y="438" type="line"/>
      <point x="594" y="308" type="line"/>
      <point x="323" y="308" type="line"/>
    </contour>
    <contour>
      <point x="366" y="327" type="line"/>
      <point x="497" y="327" type="line"/>
      <point x="497" y="223" type="line"/>
      <point x="366" y="223" type="line"/>
    </contour>
    <contour>
      <point x="497" y="224" type="line"/>
      <point x="497" y="174"/>
      <point x="541" y="131"/>
      <point x="591" y="131" type="curve"/>
      <point x="591" y="0" type="line"/>
      <point x="466" y="0"/>
      <point x="366" y="100"/>
      <point x="366" y="224" type="curve"/>
    </contour>
  </outline>
</glyph>
<glyph name="quotesingle" format="1">
  <advance width="260"/>
  <unicode hex="0027"/>
  <outline>
    <contour>
      <point x="60" y="483" type="line"/>
      <point x="200" y="483" type="line"/>
      <point x="200" y="741" type="line"/>
      <point x="61" y="741" type="line"/>
    </contour>
  </outline>
</glyph>
<glyph name="parenright" format="1">
  <advance width="438"/>
  <unicode hex="0029"/>
  <outline>
    <contour>
      <point x="100" y="84" type="line"/>
      <point x="100" y="-46" type="line"/>
      <point x="143" y="-46" type="line" smooth="yes"/>
      <point x="251" y="-46"/>
      <point x="338" y="41"/>
      <point x="338" y="148" type="curve" smooth="yes"/>
      <point x="338" y="607" type="line" smooth="yes"/>
      <point x="338" y="714"/>
      <point x="251" y="801"/>
      <point x="143" y="801" type="curve" smooth="yes"/>
      <point x="100" y="801" type="line"/>
      <point x="100" y="671" type="line"/>
      <point x="143" y="671" type="line" smooth="yes"/>
      <point x="177" y="671"/>
      <point x="208" y="643"/>
      <point x="208" y="607" type="curve" smooth="yes"/>
      <point x="208" y="148" type="line" smooth="yes"/>
      <point x="208" y="112"/>
      <point x="180" y="84"/>
      <point x="143" y="84" type="curve" smooth="yes"/>
    </contour>
  </outline>
</glyph>
<glyph name="asterisk" format="1">
  <advance width="471"/>
  <unicode hex="002A"/>
  <outline>
    <contour>
      <point x="110" y="698" type="line"/>
      <point x="60" y="612" type="line"/>
      <point x="182" y="552" type="line"/>
      <point x="181" y="583" type="line"/>
      <point x="60" y="525" type="line"/>
      <point x="111" y="438" type="line"/>
      <point x="222" y="513" type="line"/>
      <point x="195" y="529" type="line"/>
      <point x="185" y="395" type="line"/>
      <point x="286" y="394" type="line"/>
      <point x="275" y="529" type="line"/>
      <point x="249" y="513" type="line"/>
      <point x="361" y="438" type="line"/>
      <point x="411" y="526" type="line"/>
      <point x="290" y="584" type="line"/>
      <point x="290" y="553" type="line"/>
      <point x="411" y="611" type="line"/>
      <point x="361" y="699" type="line"/>
      <point x="249" y="622" type="line"/>
      <point x="276" y="607" type="line"/>
      <point x="285" y="742" type="line"/>
      <point x="185" y="741" type="line"/>
      <point x="195" y="607" type="line"/>
      <point x="222" y="623" type="line"/>
    </contour>
  </outline>
</glyph>
<glyph name="plus" format="1">
  <advance width="638"/>
  <unicode hex="002B"/>
  <outline>
    <contour>
      <point x="548" y="235" type="line"/>
      <point x="548" y="364" type="line"/>
      <point x="90" y="364" type="line"/>
      <point x="90" y="235" type="line"/>
    </contour>
    <contour>
      <point x="384" y="528" type="line"/>
      <point x="254" y="528" type="line"/>
      <point x="254" y="70" type="line"/>
      <point x="384" y="70" type="line"/>
    </contour>
  </outline>
</glyph>
<glyph name="comma" format="1">
  <advance width="280"/>
  <unicode hex="002C"/>
  <outline>
    <contour>
      <point x="20" y="-73" type="line"/>
      <point x="147" y="-73" type="line"/>
      <point x="240" y="185" type="line"/>
      <point x="94" y="185" type="line"/>
    </contour>
  </outline>
</glyph>
<glyph name="period" format="1">
  <advance width="266"/>
  <unicode hex="002E"/>
  <outline>
    <contour>
      <point x="81" y="185"/>
      <point x="40" y="144"/>
      <point x="40" y="93" type="curve" smooth="yes"/>
      <point x="40" y="42"/>
      <point x="81" y="0"/>
      <point x="133" y="0" type="curve" smooth="yes"/>
      <point x="184" y="0"/>
      <point x="226" y="42"/>
      <point x="226" y="93" type="curve" smooth="yes"/>
      <point x="226" y="144"/>
      <point x="184" y="185"/>
      <point x="133" y="185" type="curve" smooth="yes"/>
    </contour>
  </outline>
</glyph>
<glyph name="slash" format="1">
  <advance width="485"/>
  <unicode hex="002F"/>
  <outline>
    <contour>
      <point x="179" y="0" type="line"/>
      <point x="475" y="741" type="line"/>
      <point x="346" y="741" type="line"/>
      <point x="50" y="0" type="line"/>
    </contour>
  </outline>
</glyph>
<glyph name="zero" format="1">
  <advance width="544"/>
  <unicode hex="0030"/>
  <outline>
    <contour>
      <point x="365" y="522" type="line"/>
      <point x="364" y="573"/>
      <point x="321" y="616"/>
      <point x="271" y="616" type="curve" smooth="yes"/>
      <point x="221" y="616"/>
      <point x="179" y="572"/>
      <point x="179" y="522" type="curve"/>
      <point x="50" y="522" type="line"/>
      <point x="50" y="646"/>
      <point x="150" y="746"/>
      <point x="271" y="746" type="curve" smooth="yes"/>
      <point x="394" y="746"/>
      <point x="494" y="646"/>
      <point x="494" y="522" type="curve"/>
    </contour>
    <contour>
      <point x="50" y="217" type="curve"/>
      <point x="50" y="522" type="line"/>
      <point x="179" y="522" type="line"/>
      <point x="179" y="217" type="line"/>
      <point x="180" y="158"/>
      <point x="222" y="125"/>
      <point x="271" y="125" type="curve" smooth="yes"/>
      <point x="322" y="125"/>
      <point x="365" y="169"/>
      <point x="365" y="217" type="curve"/>
      <point x="494" y="217" type="line"/>
      <point x="494" y="96"/>
      <point x="394" y="-4"/>
      <point x="271" y="-4" type="curve" smooth="yes"/>
      <point x="150" y="-4"/>
      <point x="50" y="96"/>
    </contour>
    <contour>
      <point x="494" y="217" type="line"/>
      <point x="365" y="217" type="line"/>
      <point x="365" y="522" type="line"/>
      <point x="494" y="522" type="line"/>
    </contour>
    <contour>
      <point x="84" y="120" type="line"/>
      <point x="342" y="628" type="line"/>
      <point x="453" y="628" type="line"/>
      <point x="195" y="120" type="line"/>
    </contour>
  </outline>
</glyph>
<glyph name="one" format="1">
  <advance width="544"/>
  <unicode hex="0031"/>
  <outline>
    <contour>
      <point x="494" y="130" type="line"/>
      <point x="337" y="130" type="line"/>
      <point x="337" y="741" type="line"/>
      <point x="50" y="741" type="line"/>
      <point x="50" y="611" type="line"/>
      <point x="207" y="611" type="line"/>
      <point x="207" y="130" type="line"/>
      <point x="50" y="130" type="line"/>
      <point x="50" y="0" type="line"/>
      <point x="494" y="0" type="line"/>
    </contour>
  </outline>
</glyph>
<glyph name="two" format="1">
  <advance width="547"/>
  <unicode hex="0032"/>
  <outline>
    <contour>
      <point x="497" y="522" type="curve" smooth="yes"/>
      <point x="497" y="646"/>
      <point x="397" y="746"/>
      <point x="274" y="746" type="curve" smooth="yes"/>
      <point x="150" y="746"/>
      <point x="50" y="646"/>
      <point x="50" y="522" type="curve"/>
      <point x="180" y="522" type="line"/>
      <point x="180" y="572"/>
      <point x="224" y="615"/>
      <point x="274" y="615" type="curve" smooth="yes"/>
      <point x="323" y="615"/>
      <point x="367" y="572"/>
      <point x="367" y="522" type="curve" smooth="yes"/>
      <point x="367" y="454"/>
      <point x="310" y="418"/>
      <point x="274" y="401" type="curve" smooth="yes"/>
      <point x="117" y="328"/>
      <point x="50" y="218"/>
      <point x="50" y="103" type="curve" smooth="yes"/>
      <point x="50" y="0" type="line"/>
      <point x="497" y="0" type="line"/>
      <point x="497" y="131" type="line"/>
      <point x="192" y="131" type="line"/>
      <point x="192" y="210"/>
      <point x="276" y="268"/>
      <point x="312" y="287" type="curve" smooth="yes"/>
      <point x="369" y="318"/>
      <point x="497" y="358"/>
    </contour>
  </outline>
</glyph>
<glyph name="three" format="1">
  <advance width="547"/>
  <unicode hex="0033"/>
  <outline>
    <contour>
      <point x="224" y="304" type="line"/>
      <point x="280" y="304" type="line"/>
      <point x="321" y="304"/>
      <point x="367" y="268"/>
      <point x="367" y="219" type="curve" smooth="yes"/>
      <point x="367" y="166"/>
      <point x="329" y="127"/>
      <point x="274" y="127" type="curve" smooth="yes"/>
      <point x="222" y="127"/>
      <point x="180" y="173"/>
      <point x="180" y="219" type="curve"/>
      <point x="50" y="219" type="line"/>
      <point x="50" y="96"/>
      <point x="150" y="-4"/>
      <point x="274" y="-4" type="curve" smooth="yes"/>
      <point x="397" y="-4"/>
      <point x="497" y="96"/>
      <point x="497" y="219" type="curve" smooth="yes"/>
      <point x="497" y="277"/>
      <point x="476" y="330"/>
      <point x="440" y="368" type="curve"/>
      <point x="476" y="408"/>
      <point x="497" y="461"/>
      <point x="497" y="518" type="curve" smooth="yes"/>
      <point x="497" y="642"/>
      <point x="397" y="742"/>
      <point x="274" y="742" type="curve" smooth="yes"/>
      <point x="150" y="742"/>
      <point x="50" y="642"/>
      <point x="50" y="518" type="curve"/>
      <point x="190" y="518" type="line"/>
      <point x="190" y="564"/>
      <point x="224" y="611"/>
      <point x="274" y="611" type="curve" smooth="yes"/>
      <point x="328" y="611"/>
      <point x="367" y="572"/>
      <point x="367" y="518" type="curve" smooth="yes"/>
      <point x="367" y="470"/>
      <point x="322" y="435"/>
      <point x="280" y="434" type="curve"/>
      <point x="224" y="434" type="line"/>
    </contour>
  </outline>
</glyph>
<glyph name="four" format="1">
  <advance width="579"/>
  <unicode hex="0034"/>
  <outline>
    <contour>
      <point x="103" y="222" type="line"/>
      <point x="50" y="222" type="line"/>
      <point x="50" y="350" type="line"/>
      <point x="316" y="741" type="line"/>
      <point x="446" y="741" type="line"/>
    </contour>
    <contour>
      <point x="446" y="0" type="line"/>
      <point x="316" y="0" type="line"/>
      <point x="316" y="741" type="line"/>
      <point x="446" y="741" type="line"/>
    </contour>
    <contour>
      <point x="75" y="222" type="line"/>
      <point x="75" y="343" type="line"/>
      <point x="529" y="343" type="line"/>
      <point x="529" y="222" type="line"/>
    </contour>
  </outline>
</glyph>
<glyph name="five" format="1">
  <advance width="544"/>
  <unicode hex="0035"/>
  <outline>
    <contour>
      <point x="272" y="315" type="line"/>
      <point x="321" y="315"/>
      <point x="365" y="272"/>
      <point x="365" y="222" type="curve" smooth="yes"/>
      <point x="365" y="173"/>
      <point x="323" y="130"/>
      <point x="272" y="130" type="curve" smooth="yes"/>
      <point x="220" y="130"/>
      <point x="179" y="171"/>
      <point x="179" y="222" type="curve"/>
      <point x="50" y="222" type="line"/>
      <point x="50" y="99"/>
      <point x="149" y="0"/>
      <point x="272" y="0" type="curve" smooth="yes"/>
      <point x="395" y="0"/>
      <point x="494" y="99"/>
      <point x="494" y="222" type="curve" smooth="yes"/>
      <point x="494" y="346"/>
      <point x="395" y="445"/>
      <point x="272" y="445" type="curve" smooth="yes"/>
      <point x="179" y="445" type="line"/>
      <point x="179" y="611" type="line"/>
      <point x="466" y="611" type="line"/>
      <point x="466" y="741" type="line"/>
      <point x="50" y="741" type="line"/>
      <point x="50" y="315" type="line"/>
    </contour>
  </outline>
</glyph>
<glyph name="six" format="1">
  <advance width="547"/>
  <unicode hex="0036"/>
  <outline>
    <contour>
      <point x="50" y="219" type="line"/>
      <point x="50" y="96"/>
      <point x="150" y="-4"/>
      <point x="274" y="-4" type="curve" smooth="yes"/>
      <point x="397" y="-4"/>
      <point x="497" y="96"/>
      <point x="497" y="219" type="curve" smooth="yes"/>
      <point x="497" y="343"/>
      <point x="397" y="443"/>
      <point x="274" y="443" type="curve" smooth="yes"/>
      <point x="238" y="443"/>
      <point x="204" y="432"/>
      <point x="180" y="425" type="curve"/>
      <point x="180" y="518" type="line" smooth="yes"/>
      <point x="180" y="568"/>
      <point x="224" y="611"/>
      <point x="274" y="611" type="curve" smooth="yes"/>
      <point x="323" y="611"/>
      <point x="367" y="568"/>
      <point x="367" y="518" type="curve"/>
      <point x="497" y="518" type="line"/>
      <point x="497" y="642"/>
      <point x="397" y="742"/>
      <point x="274" y="742" type="curve" smooth="yes"/>
      <point x="150" y="742"/>
      <point x="50" y="642"/>
      <point x="50" y="518" type="curve" smooth="yes"/>
    </contour>
    <contour>
      <point x="367" y="219" type="curve" smooth="yes"/>
      <point x="367" y="170"/>
      <point x="324" y="127"/>
      <point x="274" y="127" type="curve" smooth="yes"/>
      <point x="221" y="127"/>
      <point x="180" y="168"/>
      <point x="180" y="219" type="curve" smooth="yes"/>
      <point x="180" y="273"/>
      <point x="226" y="313"/>
      <point x="274" y="313" type="curve" smooth="yes"/>
      <point x="323" y="313"/>
      <point x="367" y="269"/>
    </contour>
  </outline>
</glyph>
<glyph name="seven" format="1">
  <advance width="536"/>
  <unicode hex="0037"/>
  <outline>
    <contour>
      <point x="486" y="611" type="line"/>
      <point x="50" y="611" type="line"/>
      <point x="50" y="741" type="line"/>
      <point x="486" y="741" type="line"/>
    </contour>
    <contour>
      <point x="486" y="611" type="line"/>
      <point x="199" y="0" type="line"/>
      <point x="50" y="0" type="line"/>
      <point x="337" y="611" type="line"/>
    </contour>
  </outline>
</glyph>
<glyph name="eight" format="1">
  <advance width="547"/>
  <unicode hex="0038"/>
  <outline>
    <contour>
      <point x="50" y="219" type="curve" smooth="yes"/>
      <point x="50" y="96"/>
      <point x="150" y="-4"/>
      <point x="274" y="-4" type="curve" smooth="yes"/>
      <point x="397" y="-4"/>
      <point x="497" y="96"/>
      <point x="497" y="219" type="curve" smooth="yes"/>
      <point x="497" y="277"/>
      <point x="476" y="330"/>
      <point x="440" y="368" type="curve"/>
      <point x="476" y="408"/>
      <point x="497" y="460"/>
      <point x="497" y="518" type="curve" smooth="yes"/>
      <point x="497" y="641"/>
      <point x="397" y="742"/>
      <point x="274" y="742" type="curve" smooth="yes"/>
      <point x="150" y="742"/>
      <point x="50" y="641"/>
      <point x="50" y="518" type="curve" smooth="yes"/>
      <point x="50" y="460"/>
      <point x="71" y="408"/>
      <point x="106" y="368" type="curve"/>
      <point x="71" y="330"/>
      <point x="50" y="277"/>
    </contour>
    <contour>
      <point x="367" y="219" type="curve" smooth="yes"/>
      <point x="367" y="170"/>
      <point x="324" y="127"/>
      <point x="274" y="127" type="curve" smooth="yes"/>
      <point x="222" y="127"/>
      <point x="180" y="168"/>
      <point x="180" y="219" type="curve" smooth="yes"/>
      <point x="180" y="271"/>
      <point x="224" y="313"/>
      <point x="274" y="313" type="curve" smooth="yes"/>
      <point x="325" y="313"/>
      <point x="367" y="268"/>
    </contour>
    <contour>
      <point x="367" y="518" type="curve" smooth="yes"/>
      <point x="367" y="468"/>
      <point x="324" y="425"/>
      <point x="274" y="425" type="curve" smooth="yes"/>
      <point x="222" y="425"/>
      <point x="180" y="467"/>
      <point x="180" y="518" type="curve" smooth="yes"/>
      <point x="180" y="568"/>
      <point x="224" y="610"/>
      <point x="274" y="610" type="curve" smooth="yes"/>
      <point x="323" y="610"/>
      <point x="367" y="567"/>
    </contour>
  </outline>
</glyph>
<glyph name="nine" format="1">
  <advance width="547"/>
  <unicode hex="0039"/>
  <outline>
    <contour>
      <point x="497" y="518" type="line"/>
      <point x="497" y="642"/>
      <point x="397" y="742"/>
      <point x="273" y="742" type="curve" smooth="yes"/>
      <point x="150" y="742"/>
      <point x="50" y="642"/>
      <point x="50" y="518" type="curve" smooth="yes"/>
      <point x="50" y="394"/>
      <point x="150" y="294"/>
      <point x="273" y="294" type="curve" smooth="yes"/>
      <point x="309" y="294"/>
      <point x="343" y="306"/>
      <point x="367" y="313" type="curve"/>
      <point x="367" y="220" type="line" smooth="yes"/>
      <point x="367" y="169"/>
      <point x="323" y="127"/>
      <point x="273" y="127" type="curve" smooth="yes"/>
      <point x="224" y="127"/>
      <point x="180" y="170"/>
      <point x="180" y="220" type="curve"/>
      <point x="50" y="220" type="line"/>
      <point x="50" y="96"/>
      <point x="150" y="-4"/>
      <point x="273" y="-4" type="curve" smooth="yes"/>
      <point x="397" y="-4"/>
      <point x="497" y="96"/>
      <point x="497" y="220" type="curve" smooth="yes"/>
    </contour>
    <contour>
      <point x="180" y="518" type="curve" smooth="yes"/>
      <point x="180" y="568"/>
      <point x="223" y="611"/>
      <point x="273" y="611" type="curve" smooth="yes"/>
      <point x="326" y="611"/>
      <point x="367" y="570"/>
      <point x="367" y="518" type="curve" smooth="yes"/>
      <point x="367" y="465"/>
      <point x="321" y="425"/>
      <point x="273" y="425" type="curve" smooth="yes"/>
      <point x="224" y="425"/>
      <point x="180" y="468"/>
    </contour>
  </outline>
</glyph>
<glyph name="colon" format="1">
  <advance width="266"/>
  <unicode hex="003A"/>
  <outline>
    <contour>
      <point x="40" y="343" type="curve" smooth="yes"/>
      <point x="40" y="292"/>
      <point x="82" y="250"/>
      <point x="133" y="250" type="curve" smooth="yes"/>
      <point x="185" y="250"/>
      <point x="226" y="292"/>
      <point x="226" y="343" type="curve" smooth="yes"/>
      <point x="226" y="394"/>
      <point x="185" y="435"/>
      <point x="133" y="435" type="curve" smooth="yes"/>
      <point x="82" y="435"/>
      <point x="40" y="394"/>
    </contour>
    <contour>
      <point x="40" y="93" type="curve" smooth="yes"/>
      <point x="40" y="42"/>
      <point x="82" y="0"/>
      <point x="133" y="0" type="curve" smooth="yes"/>
      <point x="185" y="0"/>
      <point x="226" y="42"/>
      <point x="226" y="93" type="curve" smooth="yes"/>
      <point x="226" y="144"/>
      <point x="185" y="185"/>
      <point x="133" y="185" type="curve" smooth="yes"/>
      <point x="82" y="185"/>
      <point x="40" y="144"/>
    </contour>
  </outline>
</glyph>
<glyph name="semicolon" format="1">
  <advance width="279"/>
  <unicode hex="003B"/>
  <outline>
    <contour>
      <point x="68" y="343" type="curve" smooth="yes"/>
      <point x="68" y="292"/>
      <point x="109" y="250"/>
      <point x="160" y="250" type="curve" smooth="yes"/>
      <point x="212" y="250"/>
      <point x="253" y="292"/>
      <point x="253" y="343" type="curve" smooth="yes"/>
      <point x="253" y="394"/>
      <point x="212" y="435"/>
      <point x="160" y="435" type="curve" smooth="yes"/>
      <point x="109" y="435"/>
      <point x="68" y="394"/>
    </contour>
    <contour>
      <point x="20" y="-73" type="line"/>
      <point x="147" y="-73" type="line"/>
      <point x="240" y="185" type="line"/>
      <point x="94" y="185" type="line"/>
    </contour>
  </outline>
</glyph>
<glyph name="less" format="1">
  <advance width="537"/>
  <unicode hex="003C"/>
  <outline>
    <contour>
      <point x="462" y="578" type="line"/>
      <point x="75" y="395" type="line"/>
      <point x="75" y="230" type="line"/>
      <point x="462" y="49" type="line"/>
      <point x="462" y="194" type="line"/>
      <point x="144" y="339" type="line"/>
      <point x="144" y="286" type="line"/>
      <point x="462" y="431" type="line"/>
    </contour>
  </outline>
</glyph>
<glyph name="equal" format="1">
  <advance width="638"/>
  <unicode hex="003D"/>
  <outline>
    <contour>
      <point x="548" y="334" type="line"/>
      <point x="548" y="463" type="line"/>
      <point x="90" y="463" type="line"/>
      <point x="90" y="334" type="line"/>
    </contour>
    <contour>
      <point x="548" y="130" type="line"/>
      <point x="548" y="260" type="line"/>
      <point x="90" y="260" type="line"/>
      <point x="90" y="130" type="line"/>
    </contour>
  </outline>
</glyph>
<glyph name="greater" format="1">
  <advance width="537"/>
  <unicode hex="003E"/>
  <outline>
    <contour>
      <point x="393" y="286" type="line"/>
      <point x="393" y="339" type="line"/>
      <point x="75" y="194" type="line"/>
      <point x="75" y="49" type="line"/>
      <point x="462" y="230" type="line"/>
      <point x="462" y="395" type="line"/>
      <point x="75" y="578" type="line"/>
      <point x="75" y="431" type="line"/>
    </contour>
  </outline>
</glyph>
<glyph name="question" format="1">
  <advance width="594"/>
  <unicode hex="003F"/>
  <outline>
    <contour>
      <point x="148" y="93" type="curve" smooth="yes"/>
      <point x="148" y="42"/>
      <point x="190" y="0"/>
      <point x="240" y="0" type="curve" smooth="yes"/>
      <point x="291" y="0"/>
      <point x="333" y="42"/>
      <point x="333" y="93" type="curve" smooth="yes"/>
      <point x="333" y="144"/>
      <point x="291" y="185"/>
      <point x="240" y="185" type="curve" smooth="yes"/>
      <point x="190" y="185"/>
      <point x="148" y="144"/>
    </contour>
    <contour>
      <point x="394" y="509" type="curve" smooth="yes"/>
      <point x="394" y="456"/>
      <point x="349" y="411"/>
      <point x="297" y="411" type="curve" smooth="yes"/>
      <point x="180" y="411" type="line"/>
      <point x="180" y="213" type="line"/>
      <point x="297" y="213" type="line"/>
      <point x="297" y="272" type="line"/>
      <point x="427" y="272"/>
      <point x="534" y="378"/>
      <point x="534" y="509" type="curve" smooth="yes"/>
      <point x="534" y="639"/>
      <point x="427" y="746"/>
      <point x="297" y="746" type="curve" smooth="yes"/>
      <point x="166" y="746"/>
      <point x="60" y="639"/>
      <point x="60" y="509" type="curve"/>
      <point x="200" y="509" type="line"/>
      <point x="200" y="562"/>
      <point x="245" y="606"/>
      <point x="297" y="606" type="curve" smooth="yes"/>
      <point x="348" y="606"/>
      <point x="394" y="562"/>
    </contour>
  </outline>
</glyph>
<glyph name="at" format="1">
  <advance width="637"/>
  <unicode hex="0040"/>
  <outline>
    <contour>
      <point x="587" y="446" type="line"/>
      <point x="587" y="108" type="line"/>
      <point x="458" y="108" type="line"/>
      <point x="458" y="446" type="line"/>
    </contour>
    <contour>
      <point x="458" y="441" type="line"/>
      <point x="458" y="499"/>
      <point x="397" y="543"/>
      <point x="319" y="543" type="curve" smooth="yes"/>
      <point x="246" y="543"/>
      <point x="180" y="499"/>
      <point x="180" y="441" type="curve"/>
      <point x="50" y="441" type="line"/>
      <point x="50" y="571"/>
      <point x="175" y="672"/>
      <point x="319" y="672" type="curve" smooth="yes"/>
      <point x="476" y="672"/>
      <point x="587" y="571"/>
      <point x="587" y="441" type="curve"/>
    </contour>
    <contour>
      <point x="452" y="326" type="line"/>
      <point x="413" y="326"/>
      <point x="340" y="327"/>
      <point x="340" y="272" type="curve" smooth="yes"/>
      <point x="340" y="240"/>
      <point x="361" y="222"/>
      <point x="393" y="222" type="curve" smooth="yes"/>
      <point x="425" y="222"/>
      <point x="458" y="243"/>
      <point x="458" y="297" type="curve"/>
      <point x="513" y="297" type="line"/>
      <point x="516" y="175"/>
      <point x="438" y="103"/>
      <point x="365" y="103" type="curve" smooth="yes"/>
      <point x="274" y="103"/>
      <point x="208" y="162"/>
      <point x="208" y="263" type="curve" smooth="yes"/>
      <point x="208" y="376"/>
      <point x="285" y="435"/>
      <point x="416" y="435" type="curve" smooth="yes"/>
      <point x="578" y="435" type="line"/>
      <point x="578" y="326" type="line"/>
    </contour>
    <contour>
      <point x="179" y="446" type="line"/>
      <point x="179" y="135" type="line"/>
      <point x="50" y="135" type="line"/>
      <point x="50" y="446" type="line"/>
    </contour>
    <contour>
      <point x="570" y="19" type="line"/>
      <point x="540" y="-51"/>
      <point x="438" y="-124"/>
      <point x="319" y="-124" type="curve" smooth="yes"/>
      <point x="148" y="-124"/>
      <point x="50" y="-11"/>
      <point x="50" y="135" type="curve"/>
      <point x="180" y="135" type="line"/>
      <point x="180" y="60"/>
      <point x="246" y="6"/>
      <point x="319" y="6" type="curve" smooth="yes"/>
      <point x="378" y="6"/>
      <point x="434" y="29"/>
      <point x="458" y="71" type="curve"/>
    </contour>
  </outline>
</glyph>
<glyph name="A" format="1">
  <advance width="558"/>
  <unicode hex="0041"/>
  <outline>
    <contour>
      <point x="237" y="741" type="line"/>
      <point x="418" y="0" type="line"/>
      <point x="548" y="0" type="line"/>
      <point x="367" y="741" type="line"/>
    </contour>
    <contour>
      <point x="191" y="741" type="line"/>
      <point x="10" y="0" type="line"/>
      <point x="140" y="0" type="line"/>
      <point x="321" y="741" type="line"/>
    </contour>
    <contour>
      <point x="160" y="185" type="line"/>
      <point x="387" y="185" type="line"/>
      <point x="387" y="305" type="line"/>
      <point x="160" y="305" type="line"/>
    </contour>
  </outline>
</glyph>
<glyph name="B" format="1">
  <advance width="544"/>
  <unicode hex="0042"/>
  <outline>
    <contour>
      <point x="74" y="0" type="line"/>
      <point x="74" y="130" type="line"/>
      <point x="286" y="130" type="line"/>
      <point x="336" y="130"/>
      <point x="379" y="172"/>
      <point x="379" y="222" type="curve"/>
      <point x="509" y="222" type="line"/>
      <point x="509" y="100"/>
      <point x="409" y="0"/>
      <point x="286" y="0" type="curve"/>
    </contour>
    <contour>
      <point x="74" y="315" type="line"/>
      <point x="74" y="426" type="line"/>
      <point x="286" y="426" type="line"/>
      <point x="336" y="426"/>
      <point x="379" y="468"/>
      <point x="379" y="518" type="curve"/>
      <point x="509" y="518" type="line"/>
      <point x="509" y="397"/>
      <point x="409" y="315"/>
      <point x="286" y="315" type="curve"/>
    </contour>
    <contour>
      <point x="379" y="518" type="line"/>
      <point x="379" y="569"/>
      <point x="337" y="611"/>
      <point x="286" y="611" type="curve"/>
      <point x="74" y="611" type="line"/>
      <point x="74" y="741" type="line"/>
      <point x="286" y="741" type="line"/>
      <point x="409" y="741"/>
      <point x="509" y="641"/>
      <point x="509" y="518" type="curve"/>
    </contour>
    <contour>
      <point x="379" y="222" type="line"/>
      <point x="379" y="272"/>
      <point x="337" y="315"/>
      <point x="286" y="315" type="curve"/>
      <point x="74" y="315" type="line"/>
      <point x="74" y="426" type="line"/>
      <point x="286" y="426" type="line"/>
      <point x="409" y="426"/>
      <point x="509" y="345"/>
      <point x="509" y="222" type="curve"/>
    </contour>
    <contour>
      <point x="65" y="0" type="line"/>
      <point x="65" y="741" type="line"/>
      <point x="194" y="741" type="line"/>
      <point x="194" y="0" type="line"/>
    </contour>
  </outline>
</glyph>
<glyph name="C" format="1">
  <advance width="534"/>
  <unicode hex="0043"/>
  <outline>
    <contour>
      <point x="359" y="522" type="line"/>
      <point x="358" y="573"/>
      <point x="316" y="616"/>
      <point x="266" y="616" type="curve"/>
      <point x="216" y="615"/>
      <point x="174" y="572"/>
      <point x="174" y="522" type="curve"/>
      <point x="45" y="522" type="line"/>
      <point x="45" y="646"/>
      <point x="145" y="746"/>
      <point x="266" y="746" type="curve"/>
      <point x="389" y="746"/>
      <point x="489" y="646"/>
      <point x="489" y="522" type="curve"/>
    </contour>
    <contour>
      <point x="45" y="217" type="line"/>
      <point x="45" y="522" type="line"/>
      <point x="174" y="522" type="line"/>
      <point x="174" y="217" type="line"/>
    </contour>
    <contour>
      <point x="45" y="217" type="curve"/>
      <point x="174" y="217" type="line"/>
      <point x="175" y="158"/>
      <point x="217" y="125"/>
      <point x="266" y="125" type="curve"/>
      <point x="317" y="126"/>
      <point x="359" y="168"/>
      <point x="359" y="217" type="curve"/>
      <point x="489" y="217" type="line"/>
      <point x="489" y="96"/>
      <point x="389" y="-4"/>
      <point x="266" y="-4" type="curve"/>
      <point x="145" y="-4"/>
      <point x="45" y="96"/>
    </contour>
    <contour>
      <point x="489" y="449" type="line"/>
      <point x="359" y="449" type="line"/>
      <point x="359" y="522" type="line"/>
      <point x="489" y="522" type="line"/>
    </contour>
    <contour>
      <point x="489" y="217" type="line"/>
      <point x="359" y="217" type="line"/>
      <point x="359" y="292" type="line"/>
      <point x="489" y="292" type="line"/>
    </contour>
  </outline>
</glyph>
<glyph name="D" format="1">
  <advance width="554"/>
  <unicode hex="0044"/>
  <outline>
    <contour>
      <point x="380" y="518" type="line"/>
      <point x="379" y="570"/>
      <point x="337" y="611"/>
      <point x="286" y="611" type="curve"/>
      <point x="74" y="611" type="line"/>
      <point x="74" y="741" type="line"/>
      <point x="286" y="741" type="line"/>
      <point x="409" y="741"/>
      <point x="509" y="641"/>
      <point x="509" y="518" type="curve"/>
    </contour>
    <contour>
      <point x="65" y="0" type="line"/>
      <point x="65" y="741" type="line"/>
      <point x="195" y="741" type="line"/>
      <point x="195" y="0" type="line"/>
    </contour>
    <contour>
      <point x="380" y="222" type="line"/>
      <point x="380" y="518" type="line"/>
      <point x="509" y="518" type="line"/>
      <point x="509" y="222" type="line"/>
    </contour>
    <contour>
      <point x="74" y="0" type="line"/>
      <point x="74" y="130" type="line"/>
      <point x="286" y="130" type="line"/>
      <point x="337" y="131"/>
      <point x="380" y="172"/>
      <point x="380" y="222" type="curve"/>
      <point x="509" y="222" type="line"/>
      <point x="509" y="100"/>
      <point x="409" y="0"/>
      <point x="286" y="0" type="curve"/>
    </contour>
  </outline>
</glyph>
<glyph name="F" format="1">
  <advance width="494"/>
  <unicode hex="0046"/>
  <outline>
    <contour>
      <point x="444" y="611" type="line"/>
      <point x="74" y="611" type="line"/>
      <point x="74" y="741" type="line"/>
      <point x="444" y="741" type="line"/>
    </contour>
    <contour>
      <point x="194" y="0" type="line"/>
      <point x="65" y="0" type="line"/>
      <point x="65" y="741" type="line"/>
      <point x="194" y="741" type="line"/>
    </contour>
    <contour>
      <point x="74" y="435" type="line"/>
      <point x="444" y="435" type="line"/>
      <point x="444" y="306" type="line"/>
      <point x="74" y="306" type="line"/>
    </contour>
  </outline>
</glyph>
<glyph name="G" format="1">
  <advance width="535"/>
  <unicode hex="0047"/>
  <outline>
    <contour>
      <point x="361" y="518" type="line"/>
      <point x="360" y="569"/>
      <point x="317" y="610"/>
      <point x="267" y="610" type="curve"/>
      <point x="216" y="610"/>
      <point x="174" y="566"/>
      <point x="174" y="518" type="curve"/>
      <point x="45" y="518" type="line"/>
      <point x="45" y="641"/>
      <point x="145" y="741"/>
      <point x="267" y="741" type="curve"/>
      <point x="390" y="741"/>
      <point x="490" y="641"/>
      <point x="490" y="518" type="curve"/>
    </contour>
    <contour>
      <point x="45" y="222" type="line"/>
      <point x="45" y="518" type="line"/>
      <point x="174" y="518" type="line"/>
      <point x="174" y="222" type="line"/>
    </contour>
    <contour>
      <point x="45" y="222" type="curve"/>
      <point x="174" y="222" type="line"/>
      <point x="175" y="172"/>
      <point x="218" y="130"/>
      <point x="267" y="130" type="curve"/>
      <point x="319" y="131"/>
      <point x="361" y="172"/>
      <point x="361" y="222" type="curve"/>
      <point x="490" y="222" type="line"/>
      <point x="490" y="100"/>
      <point x="390" y="0"/>
      <point x="267" y="0" type="curve"/>
      <point x="145" y="0"/>
      <point x="45" y="100"/>
    </contour>
    <contour>
      <point x="490" y="222" type="line"/>
      <point x="361" y="222" type="line"/>
      <point x="361" y="427" type="line"/>
      <point x="490" y="427" type="line"/>
    </contour>
    <contour>
      <point x="415" y="297" type="line"/>
      <point x="267" y="297" type="line"/>
      <point x="267" y="427" type="line"/>
      <point x="415" y="427" type="line"/>
    </contour>
  </outline>
</glyph>
<glyph name="H" format="1">
  <advance width="574"/>
  <unicode hex="0048"/>
  <outline>
    <contour>
      <point x="194" y="0" type="line"/>
      <point x="65" y="0" type="line"/>
      <point x="65" y="741" type="line"/>
      <point x="194" y="741" type="line"/>
    </contour>
    <contour>
      <point x="500" y="306" type="line"/>
      <point x="74" y="306" type="line"/>
      <point x="74" y="435" type="line"/>
      <point x="500" y="435" type="line"/>
    </contour>
    <contour>
      <point x="509" y="0" type="line"/>
      <point x="380" y="0" type="line"/>
      <point x="380" y="741" type="line"/>
      <point x="509" y="741" type="line"/>
    </contour>
  </outline>
</glyph>
<glyph name="I" format="1">
  <advance width="268"/>
  <unicode hex="0049"/>
  <outline>
    <contour>
      <point x="199" y="0" type="line"/>
      <point x="69" y="0" type="line"/>
      <point x="69" y="741" type="line"/>
      <point x="199" y="741" type="line"/>
    </contour>
  </outline>
</glyph>
<glyph name="J" format="1">
  <advance width="527"/>
  <unicode hex="004A"/>
  <outline>
    <contour>
      <point x="478" y="217" type="curve"/>
      <point x="478" y="741" type="line"/>
      <point x="348" y="741" type="line"/>
      <point x="348" y="217" type="line"/>
      <point x="348" y="217" type="line"/>
      <point x="347" y="158"/>
      <point x="306" y="125"/>
      <point x="257" y="125" type="curve" smooth="yes"/>
      <point x="206" y="126"/>
      <point x="163" y="168"/>
      <point x="163" y="217" type="curve"/>
      <point x="33" y="217" type="line"/>
      <point x="33" y="96"/>
      <point x="133" y="-4"/>
      <point x="257" y="-4" type="curve" smooth="yes"/>
      <point x="378" y="-4"/>
      <point x="478" y="96"/>
    </contour>
    <contour>
      <point x="33" y="217" type="line"/>
      <point x="163" y="217" type="line"/>
      <point x="163" y="292" type="line"/>
      <point x="33" y="292" type="line"/>
    </contour>
  </outline>
</glyph>
<glyph name="K" format="1">
  <advance width="556"/>
  <unicode hex="004B"/>
  <outline>
    <contour>
      <point x="195" y="0" type="line"/>
      <point x="65" y="0" type="line"/>
      <point x="65" y="741" type="line"/>
      <point x="195" y="741" type="line"/>
    </contour>
    <contour>
      <point x="297" y="476" type="line"/>
      <point x="536" y="0" type="line"/>
      <point x="388" y="0" type="line"/>
      <point x="219" y="336" type="line"/>
    </contour>
    <contour>
      <point x="128" y="346" type="line"/>
      <point x="388" y="741" type="line"/>
      <point x="536" y="741" type="line"/>
      <point x="283" y="361" type="line"/>
      <point x="252" y="342" type="line"/>
      <point x="131" y="146" type="line"/>
    </contour>
  </outline>
</glyph>
<glyph name="L" format="1">
  <advance width="478"/>
  <unicode hex="004C"/>
  <outline>
    <contour>
      <point x="195" y="0" type="line"/>
      <point x="65" y="0" type="line"/>
      <point x="65" y="741" type="line"/>
      <point x="195" y="741" type="line"/>
    </contour>
    <contour>
      <point x="445" y="0" type="line"/>
      <point x="65" y="0" type="line"/>
      <point x="65" y="130" type="line"/>
      <point x="445" y="130" type="line"/>
    </contour>
  </outline>
</glyph>
<glyph name="M" format="1">
  <advance width="668"/>
  <unicode hex="004D"/>
  <outline>
    <contour>
      <point x="195" y="0" type="line"/>
      <point x="65" y="0" type="line"/>
      <point x="65" y="741" type="line"/>
      <point x="195" y="741" type="line"/>
    </contour>
    <contour>
      <point x="603" y="0" type="line"/>
      <point x="473" y="0" type="line"/>
      <point x="473" y="741" type="line"/>
      <point x="603" y="741" type="line"/>
    </contour>
    <contour>
      <point x="233" y="741" type="line"/>
      <point x="381" y="236" type="line"/>
      <point x="261" y="236" type="line"/>
      <point x="131" y="741" type="line"/>
    </contour>
    <contour>
      <point x="446" y="741" type="line"/>
      <point x="539" y="741" type="line"/>
      <point x="409" y="236" type="line"/>
      <point x="289" y="236" type="line"/>
    </contour>
  </outline>
</glyph>
<glyph name="N" format="1">
  <advance width="574"/>
  <unicode hex="004E"/>
  <outline>
    <contour>
      <point x="194" y="0" type="line"/>
      <point x="65" y="0" type="line"/>
      <point x="65" y="741" type="line"/>
      <point x="194" y="741" type="line"/>
    </contour>
    <contour>
      <point x="509" y="0" type="line"/>
      <point x="380" y="0" type="line"/>
      <point x="380" y="741" type="line"/>
      <point x="509" y="741" type="line"/>
    </contour>
    <contour>
      <point x="195" y="741" type="line"/>
      <point x="508" y="0" type="line"/>
      <point x="379" y="0" type="line"/>
      <point x="66" y="741" type="line"/>
    </contour>
  </outline>
</glyph>
<glyph name="P" format="1">
  <advance width="540"/>
  <unicode hex="0050"/>
  <outline>
    <contour>
      <point x="380" y="518" type="line"/>
      <point x="379" y="570"/>
      <point x="338" y="611"/>
      <point x="287" y="611" type="curve" smooth="yes"/>
      <point x="65" y="611" type="line"/>
      <point x="65" y="741" type="line"/>
      <point x="287" y="741" type="line" smooth="yes"/>
      <point x="410" y="741"/>
      <point x="510" y="641"/>
      <point x="510" y="518" type="curve"/>
    </contour>
    <contour>
      <point x="65" y="0" type="line"/>
      <point x="65" y="611" type="line"/>
      <point x="195" y="611" type="line"/>
      <point x="195" y="0" type="line"/>
    </contour>
    <contour>
      <point x="380" y="490" type="line"/>
      <point x="380" y="518" type="line"/>
      <point x="510" y="518" type="line"/>
      <point x="510" y="490" type="line"/>
    </contour>
    <contour>
      <point x="65" y="269" type="line"/>
      <point x="65" y="398" type="line"/>
      <point x="287" y="398" type="line"/>
      <point x="338" y="399"/>
      <point x="380" y="441"/>
      <point x="380" y="490" type="curve"/>
      <point x="510" y="490" type="line"/>
      <point x="510" y="369"/>
      <point x="410" y="269"/>
      <point x="287" y="269" type="curve" smooth="yes"/>
    </contour>
  </outline>
</glyph>
<glyph name="Q" format="1">
  <advance width="534"/>
  <unicode hex="0051"/>
  <outline>
    <contour>
      <point x="344" y="-79" type="line"/>
      <point x="343" y="-31"/>
      <point x="312" y="-2"/>
      <point x="266" y="-2" type="curve"/>
      <point x="266" y="125" type="line"/>
      <point x="379" y="125"/>
      <point x="471" y="34"/>
      <point x="471" y="-79" type="curve"/>
    </contour>
    <contour>
      <point x="360" y="522" type="line"/>
      <point x="359" y="573"/>
      <point x="316" y="616"/>
      <point x="266" y="616" type="curve" smooth="yes"/>
      <point x="216" y="615"/>
      <point x="174" y="572"/>
      <point x="174" y="522" type="curve"/>
      <point x="45" y="522" type="line"/>
      <point x="45" y="646"/>
      <point x="145" y="746"/>
      <point x="266" y="746" type="curve" smooth="yes"/>
      <point x="389" y="746"/>
      <point x="489" y="646"/>
      <point x="489" y="522" type="curve"/>
    </contour>
    <contour>
      <point x="45" y="217" type="curve"/>
      <point x="45" y="522" type="line"/>
      <point x="174" y="522" type="line"/>
      <point x="174" y="217" type="line"/>
      <point x="174" y="217" type="line"/>
      <point x="175" y="158"/>
      <point x="217" y="125"/>
      <point x="266" y="125" type="curve" smooth="yes"/>
      <point x="317" y="126"/>
      <point x="360" y="168"/>
      <point x="360" y="217" type="curve"/>
      <point x="489" y="217" type="line"/>
      <point x="489" y="96"/>
      <point x="389" y="-4"/>
      <point x="266" y="-4" type="curve" smooth="yes"/>
      <point x="145" y="-4"/>
      <point x="45" y="96"/>
    </contour>
    <contour>
      <point x="489" y="217" type="line"/>
      <point x="360" y="217" type="line"/>
      <point x="360" y="522" type="line"/>
      <point x="489" y="522" type="line"/>
    </contour>
  </outline>
</glyph>
<glyph name="R" format="1">
  <advance width="555"/>
  <unicode hex="0052"/>
  <outline>
    <contour>
      <point x="380" y="518" type="line"/>
      <point x="379" y="570"/>
      <point x="337" y="611"/>
      <point x="286" y="611" type="curve" smooth="yes"/>
      <point x="74" y="611" type="line"/>
      <point x="74" y="741" type="line"/>
      <point x="286" y="741" type="line" smooth="yes"/>
      <point x="410" y="741"/>
      <point x="510" y="641"/>
      <point x="510" y="518" type="curve"/>
    </contour>
    <contour>
      <point x="65" y="0" type="line"/>
      <point x="65" y="741" type="line"/>
      <point x="195" y="741" type="line"/>
      <point x="195" y="0" type="line"/>
    </contour>
    <contour>
      <point x="380" y="490" type="line"/>
      <point x="380" y="518" type="line"/>
      <point x="510" y="518" type="line"/>
      <point x="510" y="490" type="line"/>
    </contour>
    <contour>
      <point x="74" y="269" type="line"/>
      <point x="74" y="398" type="line"/>
      <point x="286" y="398" type="line"/>
      <point x="337" y="399"/>
      <point x="380" y="441"/>
      <point x="380" y="490" type="curve"/>
      <point x="510" y="490" type="line"/>
      <point x="510" y="369"/>
      <point x="410" y="269"/>
      <point x="286" y="269" type="curve" smooth="yes"/>
    </contour>
    <contour>
      <point x="366" y="0" type="line"/>
      <point x="192" y="397" type="line"/>
      <point x="341" y="397" type="line"/>
      <point x="515" y="0" type="line"/>
    </contour>
  </outline>
</glyph>
<glyph name="S" format="1">
  <advance width="524"/>
  <unicode hex="0053"/>
  <outline>
    <contour>
      <point x="347" y="203" type="curve" smooth="yes"/>
      <point x="347" y="268"/>
      <point x="238" y="292"/>
      <point x="155" y="340" type="curve" smooth="yes"/>
      <point x="96" y="373"/>
      <point x="40" y="437"/>
      <point x="40" y="527" type="curve" smooth="yes"/>
      <point x="40" y="650"/>
      <point x="140" y="741"/>
      <point x="261" y="741" type="curve" smooth="yes"/>
      <point x="384" y="741"/>
      <point x="484" y="641"/>
      <point x="484" y="518" type="curve"/>
      <point x="355" y="518" type="line"/>
      <point x="352" y="569"/>
      <point x="312" y="611"/>
      <point x="261" y="611" type="curve" smooth="yes"/>
      <point x="210" y="611"/>
      <point x="176" y="586"/>
      <point x="176" y="536" type="curve" smooth="yes"/>
      <point x="176" y="480"/>
      <point x="269" y="451"/>
      <point x="346" y="410" type="curve" smooth="yes"/>
      <point x="413" y="373"/>
      <point x="484" y="313"/>
      <point x="484" y="212" type="curve" smooth="yes"/>
      <point x="484" y="91"/>
      <point x="384" y="0"/>
      <point x="261" y="0" type="curve" smooth="yes"/>
      <point x="140" y="0"/>
      <point x="40" y="100"/>
      <point x="40" y="222" type="curve"/>
      <point x="169" y="222" type="line"/>
      <point x="171" y="172"/>
      <point x="211" y="130"/>
      <point x="261" y="130" type="curve" smooth="yes"/>
      <point x="311" y="130"/>
      <point x="347" y="160"/>
    </contour>
  </outline>
</glyph>
<glyph name="T" format="1">
  <advance width="484"/>
  <unicode hex="0054"/>
  <outline>
    <contour>
      <point x="464" y="611" type="line"/>
      <point x="20" y="611" type="line"/>
      <point x="20" y="741" type="line"/>
      <point x="464" y="741" type="line"/>
    </contour>
    <contour>
      <point x="307" y="0" type="line"/>
      <point x="177" y="0" type="line"/>
      <point x="177" y="732" type="line"/>
      <point x="307" y="732" type="line"/>
    </contour>
  </outline>
</glyph>
<glyph name="U" format="1">
  <advance width="564"/>
  <unicode hex="0055"/>
  <outline>
    <contour>
      <point x="60" y="217" type="curve"/>
      <point x="60" y="741" type="line"/>
      <point x="189" y="741" type="line"/>
      <point x="189" y="217" type="line"/>
      <point x="189" y="217" type="line"/>
      <point x="190" y="158"/>
      <point x="232" y="125"/>
      <point x="281" y="125" type="curve" smooth="yes"/>
      <point x="332" y="126"/>
      <point x="375" y="168"/>
      <point x="375" y="217" type="curve"/>
      <point x="504" y="217" type="line"/>
      <point x="504" y="96"/>
      <point x="404" y="-4"/>
      <point x="281" y="-4" type="curve" smooth="yes"/>
      <point x="160" y="-4"/>
      <point x="60" y="96"/>
    </contour>
    <contour>
      <point x="504" y="217" type="line"/>
      <point x="375" y="217" type="line"/>
      <point x="375" y="741" type="line"/>
      <point x="504" y="741" type="line"/>
    </contour>
  </outline>
</glyph>
<glyph name="V" format="1">
  <advance width="494"/>
  <unicode hex="0056"/>
  <outline>
    <contour>
      <point x="289" y="0" type="line"/>
      <point x="150" y="741" type="line"/>
      <point x="20" y="741" type="line"/>
      <point x="159" y="0" type="line"/>
    </contour>
    <contour>
      <point x="335" y="0" type="line"/>
      <point x="474" y="741" type="line"/>
      <point x="344" y="741" type="line"/>
      <point x="205" y="0" type="line"/>
    </contour>
  </outline>
</glyph>
<glyph name="W" format="1">
  <advance width="740"/>
  <unicode hex="0057"/>
  <outline>
    <contour>
      <point x="277" y="0" type="line"/>
      <point x="148" y="741" type="line"/>
      <point x="18" y="741" type="line"/>
      <point x="157" y="0" type="line"/>
    </contour>
    <contour>
      <point x="296" y="0" type="line"/>
      <point x="426" y="741" type="line"/>
      <point x="305" y="741" type="line"/>
      <point x="185" y="0" type="line"/>
    </contour>
    <contour>
      <point x="555" y="0" type="line"/>
      <point x="435" y="741" type="line"/>
      <point x="314" y="741" type="line"/>
      <point x="444" y="0" type="line"/>
    </contour>
    <contour>
      <point x="583" y="0" type="line"/>
      <point x="722" y="741" type="line"/>
      <point x="592" y="741" type="line"/>
      <point x="463" y="0" type="line"/>
    </contour>
  </outline>
</glyph>
<glyph name="X" format="1">
  <advance width="520"/>
  <unicode hex="0058"/>
  <outline>
    <contour>
      <point x="195" y="371" type="line"/>
      <point x="363" y="741" type="line"/>
      <point x="502" y="741" type="line"/>
      <point x="325" y="371" type="line"/>
    </contour>
    <contour>
      <point x="195" y="371" type="line"/>
      <point x="18" y="741" type="line"/>
      <point x="157" y="741" type="line"/>
      <point x="325" y="371" type="line"/>
    </contour>
    <contour>
      <point x="325" y="389" type="line"/>
      <point x="502" y="0" type="line"/>
      <point x="363" y="0" type="line"/>
      <point x="195" y="389" type="line"/>
    </contour>
    <contour>
      <point x="325" y="389" type="line"/>
      <point x="157" y="0" type="line"/>
      <point x="18" y="0" type="line"/>
      <point x="195" y="389" type="line"/>
    </contour>
  </outline>
</glyph>
<glyph name="Y" format="1">
  <advance width="502"/>
  <unicode hex="0059"/>
  <outline>
    <contour>
      <point x="315" y="0" type="line"/>
      <point x="185" y="0" type="line"/>
      <point x="185" y="365" type="line"/>
      <point x="315" y="365" type="line"/>
    </contour>
    <contour>
      <point x="185" y="297" type="line"/>
      <point x="353" y="741" type="line"/>
      <point x="492" y="741" type="line"/>
      <point x="315" y="297" type="line"/>
    </contour>
    <contour>
      <point x="185" y="297" type="line"/>
      <point x="10" y="741" type="line"/>
      <point x="149" y="741" type="line"/>
      <point x="315" y="297" type="line"/>
    </contour>
  </outline>
</glyph>
<glyph name="Z" format="1">
  <advance width="478"/>
  <unicode hex="005A"/>
  <outline>
    <contour>
      <point x="438" y="611" type="line"/>
      <point x="40" y="611" type="line"/>
      <point x="40" y="741" type="line"/>
      <point x="438" y="741" type="line"/>
    </contour>
    <contour>
      <point x="438" y="0" type="line"/>
      <point x="40" y="0" type="line"/>
      <point x="40" y="130" type="line"/>
      <point x="438" y="130" type="line"/>
    </contour>
    <contour>
      <point x="438" y="611" type="line"/>
      <point x="179" y="130" type="line"/>
      <point x="40" y="130" type="line"/>
      <point x="299" y="611" type="line"/>
    </contour>
  </outline>
</glyph>
<glyph name="bracketleft" format="1">
  <advance width="438"/>
  <unicode hex="005B"/>
  <outline>
    <contour>
      <point x="338" y="-46" type="line"/>
      <point x="338" y="84" type="line"/>
      <point x="230" y="84" type="line" smooth="yes"/>
      <point x="230" y="671" type="line" smooth="yes"/>
      <point x="338" y="671" type="line"/>
      <point x="338" y="801" type="line"/>
      <point x="100" y="802" type="line"/>
      <point x="100" y="-46" type="line" smooth="yes"/>
    </contour>
  </outline>
</glyph>
<glyph name="backslash" format="1">
  <advance width="600"/>
  <unicode hex="005C"/>
  <outline>
    <contour>
      <point x="254" y="741" type="line"/>
      <point x="125" y="741" type="line"/>
      <point x="421" y="0" type="line"/>
      <point x="550" y="0" type="line"/>
    </contour>
  </outline>
</glyph>
<glyph name="bracketright" format="1">
  <advance width="438"/>
  <unicode hex="005D"/>
  <outline>
    <contour>
      <point x="94" y="-46" type="line"/>
      <point x="94" y="84" type="line"/>
      <point x="202" y="84" type="line" smooth="yes"/>
      <point x="202" y="671" type="line" smooth="yes"/>
      <point x="94" y="671" type="line"/>
      <point x="94" y="801" type="line"/>
      <point x="332" y="802" type="line"/>
      <point x="332" y="-46" type="line" smooth="yes"/>
    </contour>
  </outline>
</glyph>
<glyph name="asciicircum" format="1">
  <advance width="649"/>
  <unicode hex="005E"/>
  <outline>
    <contour>
      <point x="589" y="354" type="line"/>
      <point x="406" y="741" type="line"/>
      <point x="241" y="741" type="line"/>
      <point x="60" y="354" type="line"/>
      <point x="205" y="354" type="line"/>
      <point x="350" y="672" type="line"/>
      <point x="297" y="672" type="line"/>
      <point x="442" y="354" type="line"/>
    </contour>
  </outline>
</glyph>
<glyph name="underscore" format="1">
  <advance width="550"/>
  <unicode hex="005F"/>
  <outline>
    <contour>
      <point x="550" y="-160" type="line"/>
      <point x="550" y="-61" type="line"/>
      <point x="0" y="-61" type="line"/>
      <point x="0" y="-160" type="line"/>
    </contour>
  </outline>
</glyph>
<glyph name="grave" format="1">
  <advance width="504"/>
  <unicode hex="0060"/>
  <outline>
    <contour>
      <point x="347" y="607" type="line"/>
      <point x="227" y="607" type="line"/>
      <point x="147" y="760" type="line"/>
      <point x="286" y="760" type="line"/>
    </contour>
    <contour>
      <point x="256" y="565" type="move" name="_top"/>
    </contour>
  </outline>
</glyph>
<glyph name="a" format="1">
  <advance width="478"/>
  <unicode hex="0061"/>
  <outline>
    <contour>
      <point x="428" y="375" type="line"/>
      <point x="428" y="0" type="line"/>
      <point x="298" y="0" type="line"/>
      <point x="298" y="375" type="line"/>
    </contour>
    <contour>
      <point x="298" y="371" type="line"/>
      <point x="298" y="409"/>
      <point x="272" y="435"/>
      <point x="233" y="435" type="curve" smooth="yes"/>
      <point x="195" y="435"/>
      <point x="169" y="409"/>
      <point x="169" y="371" type="curve"/>
      <point x="39" y="371" type="line"/>
      <point x="39" y="487"/>
      <point x="117" y="565"/>
      <point x="233" y="565" type="curve" smooth="yes"/>
      <point x="350" y="565"/>
      <point x="428" y="487"/>
      <point x="428" y="371" type="curve"/>
    </contour>
    <contour>
      <point x="274" y="219" type="line"/>
      <point x="235" y="219"/>
      <point x="162" y="220"/>
      <point x="162" y="165" type="curve" smooth="yes"/>
      <point x="162" y="133"/>
      <point x="183" y="114"/>
      <point x="215" y="114" type="curve" smooth="yes"/>
      <point x="257" y="114"/>
      <point x="298" y="145"/>
      <point x="298" y="190" type="curve"/>
      <point x="354" y="190" type="line"/>
      <point x="357" y="68"/>
      <point x="270" y="-4"/>
      <point x="187" y="-4" type="curve" smooth="yes"/>
      <point x="95" y="-4"/>
      <point x="30" y="55"/>
      <point x="30" y="156" type="curve"/>
      <point x="30" y="269"/>
      <point x="107" y="327"/>
      <point x="238" y="327" type="curve" smooth="yes"/>
      <point x="419" y="327" type="line"/>
      <point x="419" y="219" type="line"/>
    </contour>
    <contour>
      <point x="233" y="565" type="move" name="top"/>
    </contour>
  </outline>
</glyph>
<glyph name="b" format="1">
  <advance width="499"/>
  <unicode hex="0062"/>
  <outline>
    <contour>
      <point x="60" y="769" type="line"/>
      <point x="60" y="0" type="line"/>
      <point x="190" y="0" type="line"/>
      <point x="190" y="769" type="line"/>
    </contour>
    <contour>
      <point x="319" y="371" type="line"/>
      <point x="319" y="190" type="line"/>
      <point x="449" y="190" type="line"/>
      <point x="449" y="371" type="line"/>
    </contour>
    <contour>
      <point x="190" y="371" type="line"/>
      <point x="190" y="407"/>
      <point x="219" y="435"/>
      <point x="255" y="435" type="curve" smooth="yes"/>
      <point x="289" y="435"/>
      <point x="319" y="407"/>
      <point x="319" y="371" type="curve"/>
      <point x="449" y="371" type="line"/>
      <point x="452" y="490"/>
      <point x="374" y="565"/>
      <point x="282" y="565" type="curve" smooth="yes"/>
      <point x="200" y="565"/>
      <point x="132" y="493"/>
      <point x="134" y="371" type="curve"/>
    </contour>
    <contour>
      <point x="134" y="190" type="line"/>
      <point x="132" y="68"/>
      <point x="200" y="-4"/>
      <point x="282" y="-4" type="curve" smooth="yes"/>
      <point x="374" y="-4"/>
      <point x="452" y="71"/>
      <point x="449" y="190" type="curve"/>
      <point x="319" y="190" type="line"/>
      <point x="319" y="154"/>
      <point x="289" y="125"/>
      <point x="255" y="125" type="curve" smooth="yes"/>
      <point x="219" y="125"/>
      <point x="190" y="154"/>
      <point x="190" y="190" type="curve"/>
    </contour>
  </outline>
</glyph>
<glyph name="c" format="1">
  <advance width="479"/>
  <unicode hex="0063"/>
  <outline>
    <contour>
      <point x="194" y="17" type="line"/>
      <point x="296" y="17" type="line"/>
      <point x="296" y="-115" type="line"/>
      <point x="194" y="-115" type="line"/>
    </contour>
    <contour>
      <point x="193" y="676" type="line"/>
      <point x="295" y="676" type="line"/>
      <point x="295" y="544" type="line"/>
      <point x="193" y="544" type="line"/>
    </contour>
    <contour>
      <point x="180" y="190" type="line"/>
      <point x="180" y="154"/>
      <point x="209" y="125"/>
      <point x="245" y="125" type="curve" smooth="yes"/>
      <point x="282" y="125"/>
      <point x="309" y="154"/>
      <point x="309" y="190" type="curve"/>
      <point x="439" y="190" type="line"/>
      <point x="439" y="83"/>
      <point x="352" y="-4"/>
      <point x="245" y="-4" type="curve" smooth="yes"/>
      <point x="137" y="-4"/>
      <point x="50" y="83"/>
      <point x="50" y="190" type="curve"/>
    </contour>
    <contour>
      <point x="180" y="375" type="line"/>
      <point x="180" y="185" type="line"/>
      <point x="50" y="185" type="line"/>
      <point x="50" y="375" type="line"/>
    </contour>
    <contour>
      <point x="309" y="371" type="line"/>
      <point x="309" y="407"/>
      <point x="281" y="435"/>
      <point x="245" y="435" type="curve" smooth="yes"/>
      <point x="210" y="435"/>
      <point x="180" y="407"/>
      <point x="180" y="371" type="curve"/>
      <point x="50" y="371" type="line"/>
      <point x="50" y="478"/>
      <point x="137" y="565"/>
      <point x="245" y="565" type="curve" smooth="yes"/>
      <point x="352" y="565"/>
      <point x="439" y="478"/>
      <point x="439" y="371" type="curve"/>
    </contour>
    <contour>
      <point x="309" y="351" type="line"/>
      <point x="309" y="371" type="line"/>
      <point x="439" y="371" type="line"/>
      <point x="439" y="351" type="line"/>
    </contour>
    <contour>
      <point x="309" y="190" type="line"/>
      <point x="309" y="210" type="line"/>
      <point x="439" y="210" type="line"/>
      <point x="439" y="190" type="line"/>
    </contour>
  </outline>
</glyph>
<glyph name="d" format="1">
  <advance width="508"/>
  <unicode hex="0064"/>
  <outline>
    <contour>
      <point x="448" y="769" type="line"/>
      <point x="448" y="0" type="line"/>
      <point x="319" y="0" type="line"/>
      <point x="319" y="769" type="line"/>
    </contour>
    <contour>
      <point x="180" y="371" type="line"/>
      <point x="180" y="190" type="line"/>
      <point x="50" y="190" type="line"/>
      <point x="50" y="371" type="line"/>
    </contour>
    <contour>
      <point x="319" y="371" type="line"/>
      <point x="319" y="407"/>
      <point x="286" y="435"/>
      <point x="249" y="435" type="curve" smooth="yes"/>
      <point x="213" y="435"/>
      <point x="180" y="407"/>
      <point x="180" y="371" type="curve"/>
      <point x="50" y="371" type="line"/>
      <point x="47" y="490"/>
      <point x="135" y="565"/>
      <point x="240" y="565" type="curve" smooth="yes"/>
      <point x="322" y="565"/>
      <point x="396" y="493"/>
      <point x="393" y="371" type="curve"/>
    </contour>
    <contour>
      <point x="374" y="190" type="line"/>
      <point x="377" y="68"/>
      <point x="304" y="-4"/>
      <point x="222" y="-4" type="curve" smooth="yes"/>
      <point x="130" y="-4"/>
      <point x="47" y="71"/>
      <point x="50" y="190" type="curve"/>
      <point x="180" y="190" type="line"/>
      <point x="180" y="154"/>
      <point x="213" y="125"/>
      <point x="249" y="125" type="curve" smooth="yes"/>
      <point x="286" y="125"/>
      <point x="319" y="154"/>
      <point x="319" y="190" type="curve"/>
    </contour>
  </outline>
</glyph>
<glyph name="e" format="1">
  <advance width="489"/>
  <unicode hex="0065"/>
  <outline>
    <contour>
      <point x="245" y="565" type="move" name="top"/>
    </contour>
    <contour>
      <point x="50" y="190" type="curve"/>
      <point x="180" y="190" type="line"/>
      <point x="180" y="145"/>
      <point x="209" y="121"/>
      <point x="245" y="121" type="curve" smooth="yes"/>
      <point x="282" y="121"/>
      <point x="314" y="145"/>
      <point x="314" y="190" type="curve"/>
      <point x="439" y="190" type="line"/>
      <point x="439" y="83"/>
      <point x="346" y="-4"/>
      <point x="239" y="-4" type="curve" smooth="yes"/>
      <point x="121" y="-4"/>
      <point x="50" y="83"/>
    </contour>
    <contour>
      <point x="314" y="371" type="line"/>
      <point x="314" y="416"/>
      <point x="281" y="442"/>
      <point x="245" y="442" type="curve" smooth="yes"/>
      <point x="210" y="442"/>
      <point x="180" y="416"/>
      <point x="180" y="371" type="curve"/>
      <point x="50" y="371" type="line"/>
      <point x="50" y="478"/>
      <point x="137" y="565"/>
      <point x="245" y="565" type="curve" smooth="yes"/>
      <point x="352" y="565"/>
      <point x="439" y="478"/>
      <point x="439" y="371" type="curve"/>
    </contour>
    <contour>
      <point x="50" y="190" type="line"/>
      <point x="50" y="371" type="line"/>
      <point x="180" y="371" type="line"/>
      <point x="180" y="190" type="line"/>
    </contour>
    <contour>
      <point x="69" y="350" type="line"/>
      <point x="439" y="350" type="line"/>
      <point x="439" y="242" type="line"/>
      <point x="69" y="242" type="line"/>
    </contour>
    <contour>
      <point x="314" y="340" type="line"/>
      <point x="314" y="371" type="line"/>
      <point x="439" y="371" type="line"/>
      <point x="439" y="340" type="line"/>
    </contour>
  </outline>
</glyph>
<glyph name="f" format="1">
  <advance width="335"/>
  <unicode hex="0066"/>
  <outline>
    <contour>
      <point x="275" y="639" type="line"/>
      <point x="241" y="639"/>
      <point x="211" y="610"/>
      <point x="211" y="574" type="curve"/>
      <point x="81" y="574" type="line"/>
      <point x="81" y="682"/>
      <point x="168" y="769"/>
      <point x="275" y="769" type="curve" smooth="yes"/>
    </contour>
    <contour>
      <point x="81" y="0" type="line"/>
      <point x="81" y="574" type="line"/>
      <point x="211" y="574" type="line"/>
      <point x="211" y="0" type="line"/>
    </contour>
    <contour>
      <point x="25" y="561" type="line"/>
      <point x="322" y="561" type="line"/>
      <point x="322" y="444" type="line"/>
      <point x="25" y="444" type="line"/>
    </contour>
    <contour>
      <point x="275" y="769" type="line"/>
      <point x="340" y="769" type="line"/>
      <point x="340" y="639" type="line"/>
      <point x="275" y="639" type="line"/>
    </contour>
  </outline>
</glyph>
<glyph name="g" format="1">
  <advance width="499"/>
  <unicode hex="0067"/>
  <outline>
    <contour>
      <point x="180" y="-37" type="line"/>
      <point x="180" y="-73"/>
      <point x="208" y="-102"/>
      <point x="244" y="-102" type="curve" smooth="yes"/>
      <point x="280" y="-102"/>
      <point x="309" y="-74"/>
      <point x="309" y="-37" type="curve"/>
      <point x="439" y="-37" type="line"/>
      <point x="439" y="-144"/>
      <point x="352" y="-231"/>
      <point x="244" y="-231" type="curve" smooth="yes"/>
      <point x="137" y="-231"/>
      <point x="50" y="-144"/>
      <point x="50" y="-37" type="curve"/>
    </contour>
    <contour>
      <point x="180" y="375" type="line"/>
      <point x="180" y="190" type="line"/>
      <point x="50" y="190" type="line"/>
      <point x="50" y="375" type="line"/>
    </contour>
    <contour>
      <point x="439" y="560" type="line"/>
      <point x="439" y="-37" type="line"/>
      <point x="309" y="-37" type="line"/>
      <point x="309" y="560" type="line"/>
    </contour>
    <contour>
      <point x="365" y="195" type="line"/>
      <point x="367" y="72"/>
      <point x="290" y="0"/>
      <point x="207" y="0" type="curve" smooth="yes"/>
      <point x="106" y="0"/>
      <point x="47" y="75"/>
      <point x="50" y="195" type="curve"/>
      <point x="180" y="195" type="line"/>
      <point x="180" y="159"/>
      <point x="210" y="130"/>
      <point x="244" y="130" type="curve" smooth="yes"/>
      <point x="280" y="130"/>
      <point x="309" y="159"/>
      <point x="309" y="195" type="curve"/>
    </contour>
    <contour>
      <point x="309" y="371" type="line"/>
      <point x="309" y="407"/>
      <point x="280" y="435"/>
      <point x="244" y="435" type="curve" smooth="yes"/>
      <point x="210" y="435"/>
      <point x="180" y="407"/>
      <point x="180" y="371" type="curve"/>
      <point x="50" y="371" type="line"/>
      <point x="47" y="490"/>
      <point x="125" y="565"/>
      <point x="217" y="565" type="curve" smooth="yes"/>
      <point x="299" y="565"/>
      <point x="367" y="493"/>
      <point x="365" y="371" type="curve"/>
    </contour>
  </outline>
</glyph>
<glyph name="h" format="1">
  <advance width="508"/>
  <unicode hex="0068"/>
  <outline>
    <contour>
      <point x="60" y="769" type="line"/>
      <point x="60" y="0" type="line"/>
      <point x="189" y="0" type="line"/>
      <point x="189" y="769" type="line"/>
    </contour>
    <contour>
      <point x="328" y="371" type="line"/>
      <point x="328" y="0" type="line"/>
      <point x="458" y="0" type="line"/>
      <point x="458" y="371" type="line"/>
    </contour>
    <contour>
      <point x="189" y="371" type="line"/>
      <point x="189" y="407"/>
      <point x="224" y="435"/>
      <point x="259" y="435" type="curve" smooth="yes"/>
      <point x="298" y="435"/>
      <point x="328" y="407"/>
      <point x="328" y="371" type="curve"/>
      <point x="458" y="371" type="line"/>
      <point x="461" y="490"/>
      <point x="378" y="565"/>
      <point x="287" y="565" type="curve" smooth="yes"/>
      <point x="204" y="565"/>
      <point x="131" y="493"/>
      <point x="134" y="371" type="curve"/>
    </contour>
  </outline>
</glyph>
<glyph name="i" format="1">
  <advance width="249"/>
  <unicode hex="0069"/>
  <outline>
    <contour>
      <point x="59" y="560" type="line"/>
      <point x="59" y="0" type="line"/>
      <point x="189" y="0" type="line"/>
      <point x="189" y="560" type="line"/>
    </contour>
    <contour>
      <point x="45" y="689" type="curve" smooth="yes"/>
      <point x="45" y="646"/>
      <point x="80" y="611"/>
      <point x="124" y="611" type="curve" smooth="yes"/>
      <point x="168" y="611"/>
      <point x="204" y="646"/>
      <point x="204" y="689" type="curve" smooth="yes"/>
      <point x="204" y="733"/>
      <point x="168" y="769"/>
      <point x="124" y="769" type="curve" smooth="yes"/>
      <point x="80" y="769"/>
      <point x="45" y="733"/>
    </contour>
  </outline>
</glyph>
<glyph name="j" format="1">
  <advance width="252"/>
  <unicode hex="006A"/>
  <outline>
    <contour>
      <point x="0" y="-102" type="line"/>
      <point x="36" y="-102"/>
      <point x="65" y="-74"/>
      <point x="65" y="-37" type="curve"/>
      <point x="195" y="-37" type="line"/>
      <point x="195" y="-144"/>
      <point x="108" y="-231"/>
      <point x="0" y="-231" type="curve" smooth="yes"/>
    </contour>
    <contour>
      <point x="195" y="560" type="line"/>
      <point x="195" y="-37" type="line"/>
      <point x="65" y="-37" type="line"/>
      <point x="65" y="560" type="line"/>
    </contour>
    <contour>
      <point x="48" y="689" type="curve" smooth="yes"/>
      <point x="48" y="646"/>
      <point x="83" y="611"/>
      <point x="127" y="611" type="curve" smooth="yes"/>
      <point x="170" y="611"/>
      <point x="207" y="646"/>
      <point x="207" y="689" type="curve" smooth="yes"/>
      <point x="207" y="733"/>
      <point x="170" y="769"/>
      <point x="127" y="769" type="curve" smooth="yes"/>
      <point x="83" y="769"/>
      <point x="48" y="733"/>
    </contour>
  </outline>
</glyph>
<glyph name="k" format="1">
  <advance width="461"/>
  <unicode hex="006B"/>
  <outline>
    <contour>
      <point x="189" y="769" type="line"/>
      <point x="189" y="0" type="line"/>
      <point x="60" y="0" type="line"/>
      <point x="60" y="769" type="line"/>
    </contour>
    <contour>
      <point x="301" y="316" type="line"/>
      <point x="449" y="0" type="line"/>
      <point x="303" y="0" type="line"/>
      <point x="162" y="316" type="line"/>
    </contour>
    <contour>
      <point x="451" y="560" type="line"/>
      <point x="301" y="288" type="line"/>
      <point x="162" y="288" type="line"/>
      <point x="306" y="560" type="line"/>
    </contour>
  </outline>
</glyph>
<glyph name="m" format="1">
  <advance width="777"/>
  <unicode hex="006D"/>
  <outline>
    <contour>
      <point x="60" y="561" type="line"/>
      <point x="60" y="0" type="line"/>
      <point x="190" y="0" type="line"/>
      <point x="190" y="561" type="line"/>
    </contour>
    <contour>
      <point x="329" y="371" type="line"/>
      <point x="329" y="0" type="line"/>
      <point x="459" y="0" type="line"/>
      <point x="459" y="371" type="line"/>
    </contour>
    <contour>
      <point x="190" y="371" type="line"/>
      <point x="190" y="407"/>
      <point x="224" y="435"/>
      <point x="259" y="435" type="curve" smooth="yes"/>
      <point x="298" y="435"/>
      <point x="329" y="407"/>
      <point x="329" y="371" type="curve"/>
      <point x="459" y="371" type="line"/>
      <point x="461" y="490"/>
      <point x="379" y="565"/>
      <point x="287" y="565" type="curve" smooth="yes"/>
      <point x="205" y="565"/>
      <point x="132" y="493"/>
      <point x="134" y="371" type="curve"/>
    </contour>
    <contour>
      <point x="597" y="371" type="line"/>
      <point x="597" y="0" type="line"/>
      <point x="727" y="0" type="line"/>
      <point x="727" y="371" type="line"/>
    </contour>
    <contour>
      <point x="459" y="371" type="line"/>
      <point x="459" y="407"/>
      <point x="493" y="435"/>
      <point x="528" y="435" type="curve" smooth="yes"/>
      <point x="567" y="435"/>
      <point x="597" y="407"/>
      <point x="597" y="371" type="curve"/>
      <point x="727" y="371" type="line"/>
      <point x="730" y="490"/>
      <point x="647" y="565"/>
      <point x="547" y="565" type="curve" smooth="yes"/>
      <point x="464" y="565"/>
      <point x="363" y="493"/>
      <point x="366" y="371" type="curve"/>
    </contour>
  </outline>
</glyph>
<glyph name="n" format="1">
  <advance width="508"/>
  <unicode hex="006E"/>
  <outline>
    <contour>
      <point x="59" y="560" type="line"/>
      <point x="59" y="0" type="line"/>
      <point x="189" y="0" type="line"/>
      <point x="189" y="560" type="line"/>
    </contour>
    <contour>
      <point x="328" y="371" type="line"/>
      <point x="328" y="0" type="line"/>
      <point x="458" y="0" type="line"/>
      <point x="458" y="371" type="line"/>
    </contour>
    <contour>
      <point x="189" y="371" type="line"/>
      <point x="189" y="407"/>
      <point x="224" y="435"/>
      <point x="259" y="435" type="curve" smooth="yes"/>
      <point x="298" y="435"/>
      <point x="328" y="407"/>
      <point x="328" y="371" type="curve"/>
      <point x="458" y="371" type="line"/>
      <point x="458" y="490"/>
      <point x="378" y="565"/>
      <point x="287" y="565" type="curve" smooth="yes"/>
      <point x="204" y="565"/>
      <point x="131" y="493"/>
      <point x="134" y="371" type="curve"/>
    </contour>
  </outline>
</glyph>
<glyph name="o" format="1">
  <advance width="489"/>
  <unicode hex="006F"/>
  <outline>
    <contour>
      <point x="50" y="194" type="curve"/>
      <point x="179" y="194" type="line"/>
      <point x="179" y="158"/>
      <point x="208" y="129"/>
      <point x="244" y="129" type="curve" smooth="yes"/>
      <point x="281" y="129"/>
      <point x="309" y="158"/>
      <point x="309" y="194" type="curve"/>
      <point x="438" y="194" type="line"/>
      <point x="438" y="86"/>
      <point x="351" y="-1"/>
      <point x="244" y="-1" type="curve" smooth="yes"/>
      <point x="137" y="-1"/>
      <point x="50" y="86"/>
    </contour>
    <contour>
      <point x="309" y="370" type="line"/>
      <point x="309" y="406"/>
      <point x="280" y="434"/>
      <point x="244" y="434" type="curve" smooth="yes"/>
      <point x="210" y="434"/>
      <point x="179" y="406"/>
      <point x="179" y="370" type="curve"/>
      <point x="50" y="370" type="line"/>
      <point x="50" y="477"/>
      <point x="137" y="564"/>
      <point x="244" y="564" type="curve" smooth="yes"/>
      <point x="351" y="564"/>
      <point x="438" y="477"/>
      <point x="438" y="370" type="curve"/>
    </contour>
    <contour>
      <point x="50" y="194" type="line"/>
      <point x="50" y="370" type="line"/>
      <point x="179" y="370" type="line"/>
      <point x="179" y="194" type="line"/>
    </contour>
    <contour>
      <point x="310" y="194" type="line"/>
      <point x="310" y="370" type="line"/>
      <point x="439" y="370" type="line"/>
      <point x="439" y="194" type="line"/>
    </contour>
  </outline>
</glyph>
<glyph name="p" format="1">
  <advance width="499"/>
  <unicode hex="0070"/>
  <outline>
    <contour>
      <point x="60" y="561" type="line"/>
      <point x="60" y="-231" type="line"/>
      <point x="190" y="-231" type="line"/>
      <point x="190" y="561" type="line"/>
    </contour>
    <contour>
      <point x="319" y="371" type="line"/>
      <point x="319" y="191" type="line"/>
      <point x="449" y="191" type="line"/>
      <point x="449" y="371" type="line"/>
    </contour>
    <contour>
      <point x="190" y="371" type="line"/>
      <point x="190" y="407"/>
      <point x="219" y="435"/>
      <point x="255" y="435" type="curve" smooth="yes"/>
      <point x="289" y="435"/>
      <point x="319" y="407"/>
      <point x="319" y="371" type="curve"/>
      <point x="449" y="371" type="line"/>
      <point x="452" y="490"/>
      <point x="374" y="565"/>
      <point x="282" y="565" type="curve" smooth="yes"/>
      <point x="200" y="565"/>
      <point x="132" y="493"/>
      <point x="134" y="371" type="curve"/>
    </contour>
    <contour>
      <point x="134" y="191" type="line"/>
      <point x="132" y="68"/>
      <point x="200" y="-4"/>
      <point x="282" y="-4" type="curve" smooth="yes"/>
      <point x="374" y="-4"/>
      <point x="452" y="71"/>
      <point x="449" y="191" type="curve"/>
      <point x="319" y="191" type="line"/>
      <point x="319" y="155"/>
      <point x="289" y="126"/>
      <point x="255" y="126" type="curve" smooth="yes"/>
      <point x="219" y="126"/>
      <point x="190" y="155"/>
      <point x="190" y="191" type="curve"/>
    </contour>
  </outline>
</glyph>
<glyph name="q" format="1">
  <advance width="499"/>
  <unicode hex="0071"/>
  <outline>
    <contour>
      <point x="439" y="560" type="line"/>
      <point x="439" y="-231" type="line"/>
      <point x="309" y="-231" type="line"/>
      <point x="309" y="560" type="line"/>
    </contour>
    <contour>
      <point x="180" y="371" type="line"/>
      <point x="180" y="190" type="line"/>
      <point x="50" y="190" type="line"/>
      <point x="50" y="371" type="line"/>
    </contour>
    <contour>
      <point x="309" y="371" type="line"/>
      <point x="309" y="407"/>
      <point x="280" y="435"/>
      <point x="244" y="435" type="curve" smooth="yes"/>
      <point x="210" y="435"/>
      <point x="180" y="407"/>
      <point x="180" y="371" type="curve"/>
      <point x="50" y="371" type="line"/>
      <point x="47" y="490"/>
      <point x="125" y="565"/>
      <point x="217" y="565" type="curve" smooth="yes"/>
      <point x="299" y="565"/>
      <point x="367" y="493"/>
      <point x="365" y="371" type="curve"/>
    </contour>
    <contour>
      <point x="365" y="190" type="line"/>
      <point x="367" y="68"/>
      <point x="299" y="-4"/>
      <point x="217" y="-4" type="curve" smooth="yes"/>
      <point x="125" y="-4"/>
      <point x="47" y="71"/>
      <point x="50" y="190" type="curve"/>
      <point x="180" y="190" type="line"/>
      <point x="180" y="154"/>
      <point x="210" y="125"/>
      <point x="244" y="125" type="curve" smooth="yes"/>
      <point x="280" y="125"/>
      <point x="309" y="154"/>
      <point x="309" y="190" type="curve"/>
    </contour>
  </outline>
</glyph>
<glyph name="r" format="1">
  <advance width="342"/>
  <unicode hex="0072"/>
  <outline>
    <contour>
      <point x="60" y="560" type="line"/>
      <point x="60" y="0" type="line"/>
      <point x="190" y="0" type="line"/>
      <point x="190" y="560" type="line"/>
    </contour>
    <contour>
      <point x="190" y="338" type="line"/>
      <point x="190" y="402"/>
      <point x="252" y="431"/>
      <point x="287" y="431" type="curve"/>
      <point x="287" y="560" type="line"/>
      <point x="205" y="560"/>
      <point x="131" y="488"/>
      <point x="134" y="366" type="curve"/>
    </contour>
    <contour>
      <point x="287" y="431" type="line"/>
      <point x="342" y="431" type="line"/>
      <point x="342" y="560" type="line"/>
      <point x="287" y="560" type="line"/>
    </contour>
  </outline>
</glyph>
<glyph name="s" format="1">
  <advance width="428"/>
  <unicode hex="0073"/>
  <outline>
    <contour>
      <point x="393" y="394" type="line"/>
      <point x="393" y="488"/>
      <point x="312" y="565"/>
      <point x="214" y="565" type="curve"/>
      <point x="214" y="445" type="line"/>
      <point x="246" y="445"/>
      <point x="263" y="422"/>
      <point x="263" y="394" type="curve"/>
    </contour>
    <contour>
      <point x="35" y="172" type="line"/>
      <point x="35" y="69"/>
      <point x="107" y="0"/>
      <point x="215" y="0" type="curve"/>
      <point x="215" y="121" type="line"/>
      <point x="182" y="121"/>
      <point x="165" y="144"/>
      <point x="165" y="172" type="curve"/>
    </contour>
    <contour>
      <point x="322" y="0"/>
      <point x="393" y="69"/>
      <point x="393" y="173" type="curve" smooth="yes"/>
      <point x="393" y="268"/>
      <point x="324" y="307"/>
      <point x="284" y="327" type="curve" smooth="yes"/>
      <point x="219" y="360"/>
      <point x="170" y="376"/>
      <point x="170" y="406" type="curve" smooth="yes"/>
      <point x="170" y="429"/>
      <point x="193" y="445"/>
      <point x="214" y="445" type="curve"/>
      <point x="214" y="565" type="line"/>
      <point x="116" y="565"/>
      <point x="35" y="487"/>
      <point x="35" y="392" type="curve" smooth="yes"/>
      <point x="35" y="317"/>
      <point x="80" y="274"/>
      <point x="128" y="253" type="curve" smooth="yes"/>
      <point x="214" y="214"/>
      <point x="259" y="192"/>
      <point x="259" y="159" type="curve" smooth="yes"/>
      <point x="259" y="136"/>
      <point x="239" y="121"/>
      <point x="215" y="121" type="curve"/>
      <point x="215" y="0" type="line"/>
    </contour>
    <contour>
      <point x="263" y="380" type="line"/>
      <point x="393" y="380" type="line"/>
      <point x="393" y="394" type="line"/>
      <point x="263" y="394" type="line"/>
    </contour>
    <contour>
      <point x="35" y="172" type="line"/>
      <point x="165" y="172" type="line"/>
      <point x="165" y="185" type="line"/>
      <point x="35" y="185" type="line"/>
    </contour>
  </outline>
</glyph>
<glyph name="t" format="1">
  <advance width="340"/>
  <unicode hex="0074"/>
  <outline>
    <contour>
      <point x="260" y="130" type="line"/>
      <point x="226" y="130"/>
      <point x="195" y="159"/>
      <point x="195" y="195" type="curve"/>
      <point x="65" y="167" type="line"/>
      <point x="65" y="60"/>
      <point x="134" y="0"/>
      <point x="241" y="0" type="curve"/>
    </contour>
    <contour>
      <point x="65" y="705" type="line"/>
      <point x="65" y="167" type="line"/>
      <point x="195" y="195" type="line"/>
      <point x="195" y="705" type="line"/>
    </contour>
    <contour>
      <point x="10" y="444" type="line"/>
      <point x="306" y="444" type="line"/>
      <point x="306" y="561" type="line"/>
      <point x="10" y="561" type="line"/>
    </contour>
    <contour>
      <point x="241" y="0" type="line"/>
      <point x="325" y="0" type="line"/>
      <point x="325" y="130" type="line"/>
      <point x="260" y="130" type="line"/>
    </contour>
  </outline>
</glyph>
<glyph name="u" format="1">
  <advance width="508"/>
  <unicode hex="0075"/>
  <outline>
    <contour>
      <point x="448" y="0" type="line"/>
      <point x="448" y="560" type="line"/>
      <point x="319" y="560" type="line"/>
      <point x="319" y="0" type="line"/>
    </contour>
    <contour>
      <point x="180" y="190" type="line"/>
      <point x="180" y="560" type="line"/>
      <point x="50" y="560" type="line"/>
      <point x="50" y="190" type="line"/>
    </contour>
    <contour>
      <point x="319" y="190" type="line"/>
      <point x="319" y="154"/>
      <point x="285" y="125"/>
      <point x="249" y="125" type="curve" smooth="yes"/>
      <point x="211" y="125"/>
      <point x="180" y="154"/>
      <point x="180" y="190" type="curve"/>
      <point x="50" y="190" type="line"/>
      <point x="48" y="71"/>
      <point x="130" y="-4"/>
      <point x="222" y="-4" type="curve" smooth="yes"/>
      <point x="304" y="-4"/>
      <point x="377" y="68"/>
      <point x="374" y="190" type="curve"/>
    </contour>
  </outline>
</glyph>
<glyph name="v" format="1">
  <advance width="418"/>
  <unicode hex="0076"/>
  <outline>
    <contour>
      <point x="135" y="560" type="line"/>
      <point x="255" y="0" type="line"/>
      <point x="135" y="0" type="line"/>
      <point x="5" y="560" type="line"/>
    </contour>
    <contour>
      <point x="292" y="560" type="line"/>
      <point x="413" y="560" type="line"/>
      <point x="283" y="0" type="line"/>
      <point x="163" y="0" type="line"/>
    </contour>
  </outline>
</glyph>
<glyph name="w" format="1">
  <advance width="732"/>
  <unicode hex="0077"/>
  <outline>
    <contour>
      <point x="440" y="560" type="line"/>
      <point x="570" y="0" type="line"/>
      <point x="449" y="0" type="line"/>
      <point x="320" y="560" type="line"/>
    </contour>
    <contour>
      <point x="597" y="560" type="line"/>
      <point x="727" y="560" type="line"/>
      <point x="597" y="0" type="line"/>
      <point x="468" y="0" type="line"/>
    </contour>
    <contour>
      <point x="135" y="560" type="line"/>
      <point x="264" y="0" type="line"/>
      <point x="135" y="0" type="line"/>
      <point x="5" y="560" type="line"/>
    </contour>
    <contour>
      <point x="292" y="560" type="line"/>
      <point x="412" y="560" type="line"/>
      <point x="283" y="0" type="line"/>
      <point x="162" y="0" type="line"/>
    </contour>
  </outline>
</glyph>
<glyph name="x" format="1">
  <advance width="437"/>
  <unicode hex="0078"/>
  <outline>
    <contour>
      <point x="278" y="305" type="line"/>
      <point x="146" y="0" type="line"/>
      <point x="0" y="0" type="line"/>
      <point x="149" y="305" type="line"/>
    </contour>
    <contour>
      <point x="146" y="560" type="line"/>
      <point x="281" y="277" type="line"/>
      <point x="151" y="277" type="line"/>
      <point x="0" y="560" type="line"/>
    </contour>
    <contour>
      <point x="288" y="305" type="line"/>
      <point x="437" y="0" type="line"/>
      <point x="291" y="0" type="line"/>
      <point x="159" y="305" type="line"/>
    </contour>
    <contour>
      <point x="437" y="560" type="line"/>
      <point x="286" y="277" type="line"/>
      <point x="156" y="277" type="line"/>
      <point x="291" y="560" type="line"/>
    </contour>
  </outline>
</glyph>
<glyph name="y" format="1">
  <advance width="437"/>
  <unicode hex="0079"/>
  <outline>
    <contour>
      <point x="130" y="560" type="line"/>
      <point x="278" y="0" type="line"/>
      <point x="158" y="0" type="line"/>
      <point x="0" y="560" type="line"/>
    </contour>
    <contour>
      <point x="300" y="560" type="line"/>
      <point x="427" y="560" type="line"/>
      <point x="224" y="-230" type="line"/>
      <point x="103" y="-230" type="line"/>
    </contour>
  </outline>
</glyph>
<glyph name="z" format="1">
  <advance width="429"/>
  <unicode hex="007A"/>
  <outline>
    <contour>
      <point x="399" y="560" type="line"/>
      <point x="399" y="445" type="line"/>
      <point x="184" y="116" type="line"/>
      <point x="184" y="0" type="line"/>
      <point x="30" y="0" type="line"/>
      <point x="30" y="116" type="line"/>
      <point x="244" y="445" type="line"/>
      <point x="245" y="560" type="line"/>
    </contour>
    <contour>
      <point x="30" y="560" type="line"/>
      <point x="275" y="560" type="line"/>
      <point x="275" y="435" type="line"/>
      <point x="30" y="435" type="line"/>
    </contour>
    <contour>
      <point x="154" y="125" type="line"/>
      <point x="399" y="125" type="line"/>
      <point x="399" y="0" type="line"/>
      <point x="154" y="0" type="line"/>
    </contour>
  </outline>
</glyph>
<glyph name="braceleft" format="1">
  <advance width="478"/>
  <unicode hex="007B"/>
  <outline>
    <contour>
      <point x="266" y="611" type="line"/>
      <point x="137" y="611" type="line"/>
      <point x="137" y="139" type="line"/>
      <point x="266" y="139" type="line"/>
      <point x="266" y="271" type="line" smooth="yes"/>
      <point x="266" y="262"/>
      <point x="266" y="281" type="curve" smooth="yes"/>
      <point x="266" y="380"/>
      <point x="196" y="396" type="line" smooth="yes"/>
      <point x="266" y="423"/>
      <point x="266" y="500" type="curve" smooth="yes"/>
      <point x="266" y="519"/>
      <point x="266" y="518" type="line" smooth="yes"/>
    </contour>
    <contour>
      <point x="164" y="456" type="line"/>
      <point x="64" y="456" type="line"/>
      <point x="64" y="350" type="line"/>
      <point x="164" y="350" type="line"/>
    </contour>
    <contour>
      <point x="138" y="614" type="move"/>
      <point x="267" y="614" type="line"/>
    </contour>
    <contour>
      <point x="138" y="614" type="line"/>
      <point x="138" y="613" type="line" smooth="yes"/>
      <point x="138" y="720"/>
      <point x="225" y="807"/>
      <point x="332" y="807" type="curve" smooth="yes"/>
      <point x="376" y="807" type="line"/>
      <point x="376" y="677" type="line"/>
      <point x="314.779" y="683.868"/>
      <point x="267.064" y="667.061"/>
      <point x="267" y="612" type="curve"/>
    </contour>
    <contour>
      <point x="138" y="147" type="line"/>
      <point x="138" y="148" type="line" smooth="yes"/>
      <point x="138" y="41"/>
      <point x="225" y="-46"/>
      <point x="332" y="-46" type="curve" smooth="yes"/>
      <point x="376" y="-46" type="line"/>
      <point x="376" y="84" type="line"/>
      <point x="332" y="84" type="line" smooth="yes"/>
      <point x="295" y="84"/>
      <point x="267" y="111"/>
      <point x="267" y="148" type="curve" smooth="yes"/>
      <point x="267" y="149" type="line"/>
    </contour>
    <contour>
      <point x="340" y="347" type="line"/>
    </contour>
  </outline>
</glyph>
<glyph name="bar" format="1">
  <advance width="250"/>
  <unicode hex="007C"/>
  <outline>
    <contour>
      <point x="60" y="829" type="line"/>
      <point x="60" y="-60" type="line"/>
      <point x="150" y="-60" type="line"/>
      <point x="150" y="829" type="line"/>
    </contour>
  </outline>
</glyph>
<glyph name="braceright" format="1">
  <advance width="478"/>
  <unicode hex="007D"/>
  <outline>
    <contour>
      <point x="316" y="456" type="line"/>
      <point x="316" y="350" type="line"/>
      <point x="416" y="350" type="line"/>
      <point x="416" y="456" type="line"/>
    </contour>
    <contour>
      <point x="342" y="614" type="line"/>
      <point x="213" y="614" type="line"/>
      <point x="214.058" y="504" type="line" smooth="yes"/>
      <point x="215" y="464"/>
      <point x="229" y="444" type="curve" smooth="yes"/>
      <point x="244" y="423"/>
      <point x="285" y="406" type="line" smooth="yes"/>
      <point x="246" y="383"/>
      <point x="234" y="363" type="curve" smooth="yes"/>
      <point x="216" y="334"/>
      <point x="214.085" y="288" type="line" smooth="yes"/>
      <point x="213" y="148" type="line"/>
      <point x="342" y="148" type="line"/>
    </contour>
    <contour>
      <point x="342" y="614" type="line"/>
      <point x="342" y="613" type="line" smooth="yes"/>
      <point x="342" y="720"/>
      <point x="255" y="807"/>
      <point x="148" y="807" type="curve" smooth="yes"/>
      <point x="104" y="807" type="line"/>
      <point x="104" y="677" type="line"/>
      <point x="148" y="677" type="line" smooth="yes"/>
      <point x="185" y="677"/>
      <point x="213" y="650"/>
      <point x="213" y="613" type="curve" smooth="yes"/>
      <point x="213" y="612" type="line"/>
    </contour>
    <contour>
      <point x="342" y="147" type="line"/>
      <point x="342" y="148" type="line" smooth="yes"/>
      <point x="342" y="41"/>
      <point x="255" y="-46"/>
      <point x="148" y="-46" type="curve" smooth="yes"/>
      <point x="104" y="-46" type="line"/>
      <point x="104" y="84" type="line"/>
      <point x="148" y="84" type="line" smooth="yes"/>
      <point x="185" y="84"/>
      <point x="213" y="111"/>
      <point x="213" y="148" type="curve" smooth="yes"/>
      <point x="213" y="149" type="line"/>
    </contour>
  </outline>
</glyph>
<glyph name="exclamdown" format="1">
  <advance width="306"/>
  <unicode hex="00A1"/>
  <outline>
    <contour>
      <point x="88" y="-204" type="line"/>
      <point x="218" y="-204" type="line"/>
      <point x="218" y="334" type="line"/>
      <point x="88" y="334" type="line"/>
    </contour>
    <contour>
      <point x="102" y="380"/>
      <point x="153" y="380" type="curve" smooth="yes"/>
      <point x="204" y="380"/>
      <point x="246" y="421"/>
      <point x="246" y="472" type="curve" smooth="yes"/>
      <point x="246" y="523"/>
      <point x="204" y="565"/>
      <point x="153" y="565" type="curve" smooth="yes"/>
      <point x="102" y="565"/>
      <point x="60" y="523"/>
      <point x="60" y="482" type="curve" smooth="yes"/>
      <point x="60" y="421"/>
    </contour>
  </outline>
</glyph>
<glyph name="yen" format="1">
  <advance width="502"/>
  <unicode hex="00A5"/>
  <outline>
    <contour>
      <point x="304" y="539" type="line"/>
      <point x="502" y="539" type="line"/>
      <point x="502" y="459" type="line"/>
      <point x="304" y="459" type="line"/>
    </contour>
    <contour>
      <point x="0" y="390" type="line"/>
      <point x="502" y="390" type="line"/>
      <point x="501" y="297" type="line"/>
      <point x="-1" y="297" type="line"/>
    </contour>
    <contour>
      <point x="0" y="539" type="line"/>
      <point x="198" y="539" type="line"/>
      <point x="198" y="458" type="line"/>
      <point x="0" y="458" type="line"/>
    </contour>
    <contour>
      <point x="315" y="0" type="line"/>
      <point x="185" y="0" type="line"/>
      <point x="185" y="365" type="line"/>
      <point x="315" y="365" type="line"/>
    </contour>
    <contour>
      <point x="185" y="297" type="line"/>
      <point x="353" y="741" type="line"/>
      <point x="492" y="741" type="line"/>
      <point x="315" y="297" type="line"/>
    </contour>
    <contour>
      <point x="185" y="297" type="line"/>
      <point x="10" y="741" type="line"/>
      <point x="149" y="741" type="line"/>
      <point x="315" y="297" type="line"/>
    </contour>
  </outline>
</glyph>
<glyph name="dieresis" format="1">
  <advance width="497"/>
  <unicode hex="00A8"/>
  <outline>
    <contour>
      <point x="110" y="686" type="curve" smooth="yes"/>
      <point x="110" y="655"/>
      <point x="138" y="629"/>
      <point x="174" y="629" type="curve" smooth="yes"/>
      <point x="210" y="629"/>
      <point x="239" y="655"/>
      <point x="239" y="686" type="curve" smooth="yes"/>
      <point x="239" y="716"/>
      <point x="210" y="742"/>
      <point x="174" y="742" type="curve" smooth="yes"/>
      <point x="138" y="742"/>
      <point x="110" y="716"/>
    </contour>
    <contour>
      <point x="276" y="686" type="curve" smooth="yes"/>
      <point x="276" y="655"/>
      <point x="304" y="629"/>
      <point x="340" y="629" type="curve" smooth="yes"/>
      <point x="376" y="629"/>
      <point x="405" y="655"/>
      <point x="405" y="686" type="curve" smooth="yes"/>
      <point x="405" y="716"/>
      <point x="376" y="742"/>
      <point x="340" y="742" type="curve" smooth="yes"/>
      <point x="304" y="742"/>
      <point x="276" y="716"/>
    </contour>
    <contour>
      <point x="258" y="565" type="move" name="_top"/>
    </contour>
  </outline>
</glyph>
<glyph name="acute" format="1">
  <advance width="504"/>
  <unicode hex="00B4"/>
  <outline>
    <contour>
      <point x="215" y="565" type="move" name="_top"/>
    </contour>
    <contour>
      <point x="357" y="760" type="line"/>
      <point x="277" y="607" type="line"/>
      <point x="157" y="607" type="line"/>
      <point x="218" y="760" type="line"/>
    </contour>
  </outline>
</glyph>
<glyph name="periodcentered" format="1">
  <advance width="325"/>
  <unicode hex="00B7"/>
  <outline>
    <contour>
      <point x="70" y="343" type="curve" smooth="yes"/>
      <point x="70" y="292"/>
      <point x="111" y="250"/>
      <point x="162" y="250" type="curve" smooth="yes"/>
      <point x="214" y="250"/>
      <point x="255" y="292"/>
      <point x="255" y="343" type="curve" smooth="yes"/>
      <point x="255" y="394"/>
      <point x="214" y="435"/>
      <point x="162" y="435" type="curve" smooth="yes"/>
      <point x="111" y="435"/>
      <point x="70" y="394"/>
    </contour>
  </outline>
</glyph>
<glyph name="questiondown" format="1">
  <advance width="600"/>
  <unicode hex="00BF"/>
  <outline>
    <contour>
      <point x="190" y="380"/>
      <point x="240" y="380" type="curve" smooth="yes"/>
      <point x="291" y="380"/>
      <point x="333" y="421"/>
      <point x="333" y="472" type="curve" smooth="yes"/>
      <point x="333" y="523"/>
      <point x="291" y="565"/>
      <point x="240" y="565" type="curve" smooth="yes"/>
      <point x="190" y="565"/>
      <point x="148" y="523"/>
      <point x="148" y="472" type="curve" smooth="yes"/>
      <point x="148" y="421"/>
    </contour>
    <contour>
      <point x="348" y="-41"/>
      <point x="297" y="-41" type="curve" smooth="yes"/>
      <point x="245" y="-41"/>
      <point x="200" y="3"/>
      <point x="200" y="56" type="curve"/>
      <point x="60" y="56" type="line"/>
      <point x="60" y="-74"/>
      <point x="166" y="-181"/>
      <point x="297" y="-181" type="curve" smooth="yes"/>
      <point x="427" y="-181"/>
      <point x="534" y="-74"/>
      <point x="534" y="56" type="curve" smooth="yes"/>
      <point x="534" y="187"/>
      <point x="427" y="293"/>
      <point x="297" y="293" type="curve"/>
      <point x="297" y="352" type="line"/>
      <point x="180" y="352" type="line"/>
      <point x="180" y="154" type="line"/>
      <point x="297" y="154" type="line" smooth="yes"/>
      <point x="349" y="154"/>
      <point x="394" y="109"/>
      <point x="394" y="56" type="curve" smooth="yes"/>
      <point x="394" y="3"/>
    </contour>
  </outline>
</glyph>
<glyph name="AE" format="1">
  <advance width="760"/>
  <unicode hex="00C6"/>
  <outline>
    <contour>
      <point x="710" y="611" type="line"/>
      <point x="299" y="611" type="line"/>
      <point x="331" y="741" type="line"/>
      <point x="710" y="741" type="line"/>
    </contour>
    <contour>
      <point x="460" y="0" type="line"/>
      <point x="331" y="0" type="line"/>
      <point x="331" y="741" type="line"/>
      <point x="460" y="741" type="line"/>
    </contour>
    <contour>
      <point x="710" y="0" type="line"/>
      <point x="340" y="0" type="line"/>
      <point x="340" y="130" type="line"/>
      <point x="710" y="130" type="line"/>
    </contour>
    <contour>
      <point x="340" y="435" type="line"/>
      <point x="710" y="435" type="line"/>
      <point x="710" y="306" type="line"/>
      <point x="340" y="306" type="line"/>
    </contour>
    <contour>
      <point x="201" y="741" type="line"/>
      <point x="20" y="0" type="line"/>
      <point x="150" y="0" type="line"/>
      <point x="331" y="741" type="line"/>
    </contour>
    <contour>
      <point x="170" y="185" type="line"/>
      <point x="331" y="185" type="line"/>
      <point x="331" y="305" type="line"/>
      <point x="170" y="305" type="line"/>
    </contour>
  </outline>
</glyph>
<glyph name="Eth" format="1">
  <advance width="554"/>
  <unicode hex="00D0"/>
  <outline>
    <contour>
      <point x="380" y="518" type="line"/>
      <point x="379" y="570"/>
      <point x="337" y="611"/>
      <point x="286" y="611" type="curve"/>
      <point x="74" y="611" type="line"/>
      <point x="74" y="741" type="line"/>
      <point x="286" y="741" type="line"/>
      <point x="409" y="741"/>
      <point x="509" y="641"/>
      <point x="509" y="518" type="curve"/>
    </contour>
    <contour>
      <point x="65" y="0" type="line"/>
      <point x="65" y="741" type="line"/>
      <point x="195" y="741" type="line"/>
      <point x="195" y="0" type="line"/>
    </contour>
    <contour>
      <point x="380" y="222" type="line"/>
      <point x="380" y="518" type="line"/>
      <point x="509" y="518" type="line"/>
      <point x="509" y="222" type="line"/>
    </contour>
    <contour>
      <point x="74" y="0" type="line"/>
      <point x="74" y="130" type="line"/>
      <point x="286" y="130" type="line"/>
      <point x="337" y="131"/>
      <point x="380" y="172"/>
      <point x="380" y="222" type="curve"/>
      <point x="509" y="222" type="line"/>
      <point x="509" y="100"/>
      <point x="409" y="0"/>
      <point x="286" y="0" type="curve"/>
    </contour>
    <contour>
      <point x="296" y="435" type="line"/>
      <point x="296" y="306" type="line"/>
      <point x="0" y="306" type="line"/>
      <point x="0" y="435" type="line"/>
    </contour>
  </outline>
</glyph>
<glyph name="Thorn" format="1">
  <advance width="540"/>
  <unicode hex="00DE"/>
  <outline>
    <contour>
      <point x="65" y="0" type="line"/>
      <point x="65" y="741" type="line"/>
      <point x="195" y="741" type="line"/>
      <point x="195" y="0" type="line"/>
    </contour>
    <contour>
      <point x="65" y="149" type="line"/>
      <point x="65" y="278" type="line"/>
      <point x="287" y="278" type="line" smooth="yes"/>
      <point x="338" y="279"/>
      <point x="380" y="321"/>
      <point x="380" y="370" type="curve"/>
      <point x="379" y="422"/>
      <point x="338" y="463"/>
      <point x="287" y="463" type="curve" smooth="yes"/>
      <point x="65" y="463" type="line"/>
      <point x="65" y="593" type="line"/>
      <point x="287" y="593" type="line" smooth="yes"/>
      <point x="410" y="593"/>
      <point x="510" y="493"/>
      <point x="510" y="370" type="curve" smooth="yes"/>
      <point x="510" y="249"/>
      <point x="410" y="149"/>
      <point x="287" y="149" type="curve" smooth="yes"/>
    </contour>
  </outline>
</glyph>
<glyph name="circumflex" format="1">
  <advance width="497"/>
  <unicode hex="02C6"/>
  <outline>
    <contour>
      <point x="259" y="565" type="move" name="_top"/>
    </contour>
    <contour>
      <point x="174" y="760" type="line"/>
      <point x="267" y="760" type="line"/>
      <point x="233" y="607" type="line"/>
      <point x="113" y="607" type="line"/>
    </contour>
    <contour>
      <point x="405" y="607" type="line"/>
      <point x="284" y="607" type="line"/>
      <point x="251" y="760" type="line"/>
      <point x="343" y="760" type="line"/>
    </contour>
  </outline>
</glyph>
<glyph name="endash" format="1">
  <advance width="600"/>
  <unicode hex="2013"/>
  <outline>
    <contour>
      <point x="550" y="232" type="line"/>
      <point x="550" y="361" type="line"/>
      <point x="50" y="361" type="line"/>
      <point x="50" y="232" type="line"/>
    </contour>
  </outline>
</glyph>
<glyph name="emdash" format="1">
  <advance width="876"/>
  <unicode hex="2014"/>
  <outline>
    <contour>
      <point x="826" y="232" type="line"/>
      <point x="826" y="361" type="line"/>
      <point x="50" y="361" type="line"/>
      <point x="50" y="232" type="line"/>
    </contour>
  </outline>
</glyph>
<glyph name="quoteleft" format="1">
  <advance width="291"/>
  <unicode hex="2018"/>
  <outline>
    <contour>
      <point x="261" y="741" type="line"/>
      <point x="133" y="741" type="line"/>
      <point x="40" y="483" type="line"/>
      <point x="187" y="483" type="line"/>
    </contour>
  </outline>
</glyph>
<glyph name="quotedblleft" format="1">
  <advance width="455"/>
  <unicode hex="201C"/>
  <outline>
    <contour>
      <point x="425" y="741" type="line"/>
      <point x="316" y="741" type="line"/>
      <point x="223" y="483" type="line"/>
      <point x="370" y="483" type="line"/>
    </contour>
    <contour>
      <point x="260" y="741" type="line"/>
      <point x="151" y="741" type="line"/>
      <point x="40" y="483" type="line"/>
      <point x="186" y="483" type="line"/>
    </contour>
  </outline>
</glyph>
<glyph name="quotedblright" format="1">
  <advance width="455"/>
  <unicode hex="201D"/>
  <outline>
    <contour>
      <point x="30" y="483" type="line"/>
      <point x="139" y="483" type="line"/>
      <point x="232" y="741" type="line"/>
      <point x="85" y="741" type="line"/>
    </contour>
    <contour>
      <point x="195" y="483" type="line"/>
      <point x="304" y="483" type="line"/>
      <point x="415" y="741" type="line"/>
      <point x="269" y="741" type="line"/>
    </contour>
  </outline>
</glyph>
<glyph name="bullet" format="1">
  <advance width="478"/>
  <unicode hex="2022"/>
  <outline>
    <contour>
      <point x="90" y="298" type="curve" smooth="yes"/>
      <point x="90" y="216"/>
      <point x="156" y="149"/>
      <point x="239" y="149" type="curve" smooth="yes"/>
      <point x="320" y="149"/>
      <point x="388" y="216"/>
      <point x="388" y="298" type="curve" smooth="yes"/>
      <point x="388" y="379"/>
      <point x="320" y="444"/>
      <point x="239" y="444" type="curve" smooth="yes"/>
      <point x="156" y="444"/>
      <point x="90" y="379"/>
    </contour>
  </outline>
</glyph>
<glyph name="acute.case" format="1">
  <advance width="504"/>
  <outline>
    <contour>
      <point x="357" y="950" type="line"/>
      <point x="277" y="797" type="line"/>
      <point x="157" y="797" type="line"/>
      <point x="218" y="950" type="line"/>
    </contour>
    <contour>
      <point x="215" y="565" type="move" name="_top"/>
    </contour>
  </outline>
</glyph>
